<mxfile host="app.diagrams.net" modified="2023-06-28T07:30:46.713Z" agent="Mozilla/5.0 (Windows NT 10.0; Win64; x64) AppleWebKit/537.36 (KHTML, like Gecko) Chrome/115.0.0.0 Safari/537.36" etag="SKQW8xyh--GNr_v9Tq5X" version="21.5.0" type="github">
  <diagram name="Page-1" id="wKNZ-LU6x_NVGAEyrUze">
    <mxGraphModel dx="1248" dy="572" grid="1" gridSize="10" guides="1" tooltips="1" connect="1" arrows="1" fold="1" page="1" pageScale="1" pageWidth="3300" pageHeight="4681" math="0" shadow="0">
      <root>
        <mxCell id="0" />
        <mxCell id="1" parent="0" />
        <mxCell id="pjr2mUQg8MxCeDGKyN2_-4" value="" style="shape=image;verticalLabelPosition=bottom;labelBackgroundColor=default;verticalAlign=top;aspect=fixed;imageAspect=0;image=data:image/png,iVBORw0KGgoAAAANSUhEUgAAAQgAAAH6CAYAAAD7rNLtAAAAAXNSR0IArs4c6QAAAARnQU1BAACxjwv8YQUAAAAJcEhZcwAADsMAAA7DAcdvqGQAAKD7SURBVHhe7f0HlGTHfeaJorz33vuq9gau0SAalg6kKIqiSBnKUNJImtnRnJl5c2b2zNt39u3O2bO7Z/edlUbSSKORH4lGIiGKBCmCIAiSIOEaQDfad3nvvfdV7/dF37zKqi6TlZWZVZUZ3zlZlTeui4iM//f//hFx4z5gYWFhYWFhYWFhYWFhYWFhEQJEOf8twghRICkpKTklJSU1Pj4+KSEhISkuLi4xJiYmPjo6OmYdOIe6ID2afzpV0HcDbeh4gc31tbW11Xt77kHX4585SdB3pXP4mue/5zvnmv+Cc6xgrrmysrK0vLy8sLS0ND87Ozs9Nzc3w/cl5xiLA4IliDACRJCQnp6eVVhYWJuTk/PkxMTEk319fSdnZmayFhcXE1ZXV2XM2yI2NnYFQlmETJYx/GW2lyGVJT4rfFZ1nbGxsXzncIO8vLwByGhKJABi+MRynzj+x2HwCXzisPMECCDWOWVL6Ppkfz4rK2ukpKTkvcTExNe519uDg4Ptk5OTY5YsDgaWIMIAGFOiiKGqquoiRv08pHBxZGSkBFJIx65cNeABBPAARDDL/0UMcxkDn87MzOxNS0vrJn2AQ4Yx6CHOHVlYWBjnM8VnprKy8mOtra3/ob+/v1yCIj8/v7+uru4/dnV1/YjtdQw8mayk8cnkew7XL+BaReSjeHp6ugqDL+I6KVw7jrRM2bxHSOh6grZFFFxDZDFYXFx8GZL5h7a2tjcginG+L5sDLUICSxBHGBh3DB68sLa29vn5+flP4m1PjI+P5yPPU70NTtC2vicnJ09BJNcxvutsNyLnGzG8XhEAtidHvaj/+mDIK6gBN6S4ePHiz3Z3d//vvb29VVwvqqCgoKe0tPQ33nvvvZecQwyUL4gqFoKI93ww+iRCnsyMjIwqvp/gns80Nzc/Qr5TndNceOV9HfKayc7OHkJVXOOSX29paXlldHR0SHkzB1kEFZYgjiDUX5Cbm1uA9/4Ihvw8xHBuYGCgGq9sZLyHFLyhNIysraam5osY2Lfx5r0QyTRhwzTX8Mkrf+ADH/hcZ2fn/wZBVMqIIYi+8vLyf3716tVv+2qwUjsolQyFQZDUZ+7evfsZ1E6xhxQ2w5MOsS2gWLq5521UzrebmppepNx9ZqdF0LBjTGpx+IAHzjx79uxHUQ7/AlL4GST/4xhYAY4+WiSwmRxkYHjwdYjhCt7+9/HAf8s5N5H8k6iGeXUcOIfuCsjgDJ7/Wc7N1HZqauoM+fkmIUcz99nawjdBRAIxzQ4NDXWz2QrJzZDn4qmpqTxlZXP+PWWCw2InJiZyKGsl28cqKiqOQRar5GVAqsc53CLAsARxRCDJXl9ffw6D+jze/5cbGxs/iActwd5iPUa0GbJZHPZaQ0PDjzMzM3//1q1bXx8eHh50du8ZWxDE9F4JwhtcawyyaKmurp4lKinlugVbkYQHSld5CaNyUUH13J/qqCukjFNca2QvZGfhGyxBHAGgFgrOnDnzCQzhVyXJu7q6GvCocc5uGc4a+6JkH952StoK5PAa8vy/XLt27UWFE84uvxBoghA0nIl6aEbhzKF0yvhe6CEJXZLrP5Cenj7C9zXKHK9ztA/VEIcKKaNMx4uLi8tA3Pz8/KDUibmwRUBgCeIQQ519eNcTeMnPYYS/defOnUsYRLrHwyIqTL8CxtGEZ03HQBI8dqp9kMPrkMMfXrly5euLwOzYB4JBEAKhzgKqoLm2tnaVslVyfRNuCOR/jfte43M5JSVlAQLI8CYKtlP6+voaIJd66imJtCFCkRFzssW+YQnikCIJHDt27EJ+fv5v3Lx585d7e3ursUH398rJyRlm//cLCwu/ixGNEzqchjwSPeSBR76anZ39R5DDCxqaMIn7xBYEsec+iO2gfgQpCcIozZ2opixZKgukF4WC6kMNfSUhIeG1oqKiRdKTZ2dnsyERTywSTdhVAFkch1BzpTjYHmC/DTn2CUsQhxA08IxTp059EEP4f12/fv1jGE62s0sedRlDvQUBfAmv+0ccM4kxfF4jCx57QHJ3cMwfc+6XAym5uebZYBGEICVBfptRArmUuQZySFE6iiCvoKAgZmRk5MsDAwPfqqqqGsnKykpGFGVALMm6tciEc1MhyjpItba0tHSSa/SLeMzFLfyCJYhDBrx+7unTp3+Ghv7vW1paLmAzSUrXTGjNMkQ1vIy4+N3bt29/if8pmZmZv9XY2Pi0Z4gTo506efLkX7a1tX1hPx2SW2ELBRGQEMMbGPkMSqEPAy9TRyShU8zq6mos5cshBFkhnPhRT0/PFRTFu5CkQpJszsnTdA2RBMcncF4pIcdZ1Mgiee2AaOacy1vsEZYgDglo3FF4viKM+3Pd3d2/3dXVdQrvZ36f+Pj4B5DWLZDDnw8NDf0hhPCWnoHA037y7t27v4HRpjvHrUIuL7H9ZxrKVFogsR1B4NVbAinnuf44odNSWlpaBSRX7qgDzdJMRx21o5bukt6PQriCmhiEJNP4ng85mL4JEQrbOXBWXUNDg4ZVO0Q85uIWe4IliEMCCKDsxIkTv9be3v7rEEQDjd2kE1Ks4DnfRGL/HmTwJbxnm4zx+PHjF/Gq/xIiOeGR2CUlJa2EJ/8ZdfFDjGTDQ1WBwBYEYUKMQBOEroWB91VXV2fi/Y/Nzs6KAKMw8jTqKZmivc3+CdTVPOFVGwTRWFlZGc1xZdSJCUu4RDT5zKJualASCl86ZmZmprTPwndYgjhgSDngLUtQB/8Mr/8rkEOtR61jgHMoin+MiYn5z7du3XqJWHxM6Tk5OXkVFRU/T9pPoTISlJaSkqLQ4q8IS17AiCeUFmiIIMjDc8EmCEF9B5R7tKysrATFcEb1pNEL6iYF4ugnjGhk20wJ53svx2oUZBFiLYcosnQNjo2GSLLIWiVqK4ZrtpP3SXMDC59gCeKAIWPHsH8Nw/5l1EGNlIAIAiUwSbjwAl7zj27evPmavKVzygOnTp16Fs/568T+GtkwD19hNO9iGL/b0dHR6BwWcDgEsUFB4L2/pT6IQBOEgHGPo4oSCJ2O6RkTpWHkieqghBDeJM0MZ1IH6/oOWbTW1NRMs68IkixQ3YhY+J4NcVRAEmvUZwv1ZMMNH3Hfk34WoQMxdjrGrucbfhFyqPWQQ3Z29uiZM2e+AAn8AeTwOg3ffVYC48gm7HiSc046SSKTwdzc3BcIN+44SSGFjND5GlAoTEJV/aC4uPjbsbGxy7oNIUQiKus0xPEk9WDCCQ/6+vq6bty48Vcost9DTVyBKEx9Kn/Ub1VbW9svEZp9FmJLc06x2AWWIA4Imudw7ty5n6FR/4pmRqrxO+QwdOLEib/FK//h3bt339vsmfGQFyCOx4nNzfAe3nWltLT0Fgbw0gF4xoCMXOyEoaGhfrz+DwipbmskR0BZZKKofrKgoKDMJHgBJTF2/fr1r0CYf4BieFfqykMS1HP94ODg5yDfT1JvpkPTYmdYgjgAJOh55xMnLhE7/zohwQkcZbRDDsOk/z2N+I/xnLecw13oPLzfpfb29rMiFAGJP4iq+O7AwECXSQgyuG/QSWEzent7r6EiXsbYjZLS0C/19iBK4exWhk4INPX+++9/hfDtDwm9LnuTRFNT04Ps/zXCt2dRJTsuYmNhCSLkUKOsrKw8zr/fJEw4R/RgGnhGRsbEsWPHXoQ0/rS5ufm6OdgLatx6ghGVoBmTZr0HeVS8aCtq4zt42bB9BkGPdaOYfowq6PKoCE05x/A/XFRUVG4SNkFq6tq1a1/Nz8//i/Ly8usKNwQEWQz1+xhff4sw5KxJtNgWliBCCBm5hjP5fK6xsfEZGnGy0omlFxoaGl7ByP8aD/e+OXgTaOAxeMwnUAonnCSphzHUw1XClFYnKdQIiZqADNdHRkaaMPQfI6LM8O3S0lJyd3f3Y5BGjTloC0Ai0zdu3PjbkpKSL/Fppvr1GxgF0tbWdikvL+/XNYLkHG6xBSxBhBAYtJaF+wjk8Fn1rCsNL7iODH6br39z+/btN9Qxp/TNUIcc3u9hCKJMjVyggXcsLi6+FgkzBVER3XDk60lJSePaVjVBjNWEXCc3d1Z6Y2JiYpz6/u+orxcIOQacUEN9FTldXV3P1dfX/6Q6i53DLTbBEkSIgDSOJrQ4TwjxC0NDQyWehoqaaCK8+Itbt259D6+45UNVCkvKysqOETtXEZKYx7w5d53ziFI6317xzKoKPULWH6EQamxs7DohQwfVYdJUFxDFQ6iDapOwDRSioDb+oq6u7puJiYmLqnuht7e3it/j5/ldzDwLk2ixAZYgQgTkcS2e6qfa29vP06hNQJySkjKJovjrlpaW7+40AoHKiMP7PYTqKNW2Gnh2dvYY59/FQ46agyIAlHUA1fQuisE8gEU9RGP8pwizqswBOwC10ILS+vLx48e/Ly7QB16Ng2DP8Lv8anFx8ZZ9GZEOSxAhAIacAkE819ra+nEaqVmkFam8dOrUqW8ik3ddWxFpLZd5lji86F6KCS+6CC+ubac6goiQj2J44JChlsQ3M0UhiChUQA11Wak+GqVtBw0X6xkWyOXvUAy3lSaSgJgzIO1na2pqPq6naM3BFi4sQYQAtbW1D8/MzPxEf39/hby/JHJpaeltJPJf48HuOodtCUlfGm4WDbmCjxZEMemk9QwMDFxXwzcJocOBEYRU1vj4+C341lVNhB7q6K3SjNR7KdtDYUpzc/NL1P1XIRWzupZ+D8IMzbz8FKFKvTnQwoUliCBDMx/BR1APF7FlU98Y9xCS9iukXd5NAaj/AbVQBcHkyWMqDWe5ihftHRoa6jEHHTBEYs7XoANDHqQ+2xMSElxiXFhYKMvNzb1v0tRW0MQrCOEfCTV+6BEd/AQJHR0dDxUUFHyQa+eaRAsDSxBBBurh4vDw8CUatnmACM+1rFGL7u7ur6mH3Ry0A+Li4uIzMjIaMAIz6iGPB+lM0rh7Qj164RDBBjIIJTkIhFXzqampzdSj59mUqKmpqZK0tDSfhyshg5sQzFcKCwtbPfMqUCepkMdPVFRUnDMJFgaWIIIIvFEOMe9H2tra3Ak5NMoWGucLxM5tTtKOUGwN9HYqdygOOd2D1+uALEIu9+ED955SNHwC/lj5ToAUZ1FiTdSh++g2xp0Nkbqrbu0GhRpdXV2vQQYvqS9IaeqwRNE9CBk/p3U5zIEWliCCBVl1fX39U3ilCzRI83AQsfMcMvYycfB3MHiflkLTEObq6uooBuB5THkdb9mO+mgJNUGgYkYwoD7Pbfk+jMGOKY8mIQSQapqenm706odYR1GMUJ17Wqi2r6+vi9/l6xB2Iz+VSYN040n/cFVVlWZaWoAde34t/Id6xIuLi/+H27dvPyfvpDRCixt4rL/AU13xtXMRcliJjY2d4VpFeO9UVMkQ8fbXGxsbfSaZQAFiWCgrK4tNTEzMzcvL6ykqKnoRdfSyOg+dQ4IO1RtYKC8v18hFKt6+m7x8qaWl5SUpA+ewXeGQ62JlZWU24d8pyE8L/kaNj4/n19TU9MzMzLwf6hDOIkKgB4jOnz//7IkTJ95iUw1xnVBj+oknnvivvvS2b4YmWWGMpVzzuVOnTj2elZWV4+wKKZQPER/SvBYv24CCMOtChBoyZGd5vouQ7gl/Z0KqPKdPn34CpfcOX9e5rH6rtTNnznz/kUce+di9oywsAgwZzjPPPPN/4+k1Xm8I4tixY5cvXrz4WYUe5iA/sJ9zwxEiCuer30B9FFy6dOn/RJmpw9j8VhDOOL/f/4raMwsGRzJsH0SAISPGu5UhVR8eGxszE28IEZZRDu+3t7e/Tsjgd6fefs4NRzhhwr7A7zQ6PT39HQiiU9viHLYzCJtOE36cDAQJHWVYgggw9OBQcXHxUyMjIw3EyiaN7TYk7HvDw8MDJsHi0EAdrH19fXcg9XdTU1OXHM6JIu0MaR+IdNVmCSLAgCBSl5aWnkQ9ePoa1iGIKwMDA9s+qWlxsNAK2RDD9wg3zGPzEg2Dg4Nly8vL57KysiJ64pQliABCsx7xOpWoh/q5uTnzyGFKSsp0YmLize7u7mZzkMWhwwLg93mTMKPFE1FoIR9CjZrS0tKTkawiLEEEEOpNp5FdoGG5s/oqKiruQBY31AidJItDiNHR0UFCjOs5OTnjnq4NiL48MzPzgojfJEQgLEEEEKgFvSvyIgRhplWDdRqcwgvz9KDF4QW/29LMzMyPUYDuw3OEiQWLi4sn+F3NE7iRCEsQAYJ6u4lXi7U+AYohRlJV4UV0dPSt/v7+kCwoa+E/1D/U2dl5JSMjQx3Kph8CckicmpqqKCwsrCYtIm3FEkSAgDxNgyBO0qDMC1vUnsrKyhrxSi3Es+57LSwOLzTkmZCQ0EyYOOYJMyYnJ4vz8vIubLV6diTAEkSAkJaWlgEpnIYLzHMXfF8ivLhFo7Pq4YhAKmJhYeEWhNDiJGmRmgKSz+upWicpomAJIkBAQWThbY7TwMxzFzExMas0qlvDw8O95gCLI4GhoaGb6enp7c6mnhRNQRVq1SqzAnmkwRJEgJCSkpJL46pfWloy8SuNbHJubq6JEMOsXGRxNNDb29sOGfRA7mv6HTXZDZLIys3NLY/EfghLEAEA5JCCgqjG02QrdtWomF5oQ8MaZHvf04EtQgfnCdkeCGH4XoqZJ5GRnZ19IhE4SREDSxABQFpaWiakUIu3MQ1I3icjI0Nvkd51xSiLwwcIoSsnJ6fD2dQQaGZ8fPzxSOyHsAQRACQnJ6fTiMpXneXsIYtFGlP79PS0JYgjiMnJyS5I313vk1AxhU8tJJHgJEUMLEEEABBE5szMTAkEYbYhiAUIowWC8KwCZXGEMDIy0p2QkNCnPghhfn4+dmxsrIIII+I6Ki1BBAA0nAwaUJmHINieJrzohSRC/c4KiwCA33IEchiA6M1SeuqoxAHkpKSkZJEeUY9/W4LYJ9Rg8DbZo6OjeWpI6qDMyMgYII51F1W1OFqA6IUxwgx3CTu2E9gujLQJU5Yg9gmtOgQp5HnWnYyLi1vH0/QjHjzLslscQfB7jmdlZQ15RjYhiDgcQQG/tfmdIwWWIPYJxaU0Ig1vGukJQSzDGYOLi4t2wdMjDAh+IjU1dcgTUUAYCZBDAb+vJQgL36EFYiAHEYQZwYiJidEq1MM0MPt49xHG/Pz8BL/tqIcgCB/1yHch/BBRIxmWIPYJFEQK3kVrT5q6hBwWaUx6V4R9QOsIAwU4w2/pjkIRYsQuLy/nQRC2D8LCdxCXaom5TE+IQbixDEFMkmZHMI4wFCLyW06hIMxMWAg/ljRNiLMhhoXvwKMk41nc9zLQoJZpTFOQhF1/8ghjYWFhjt9SBGFWHub3jILzUwghLUFY+A4aTDwE4U6gweus0JAmSbMhxhHG3NzcLKpQQ9WGIPiuMCOe3zeibMYSxD5Be4nREJgakKDHvOGGOVREyN5XaRF48Juu8JsueDop9fvyu8azbQnCwndAEHHyLM6meZkL21Y9HHHwGypE1McwhAiCpARLEBZ7Ag0mBs/iHZdagggDiCAgBf2OhiDW1takIBJsiGGxJ4ggaDyugqD9WIIIA/CbrkEQG8JEokarICz2BjUYCMF9sQrbijLsIjFhAH5GhRjub6mhTudrxMASxD4hMtDsSWfTINJkaLhC6tD5aqAOaOdrxMA25H0CftDUai1TZoCaiGY74hYWCTfwG8bC8xt+x7i4uAV+73tvZI4QWILYJyCEBRqO+1gwoWtsQkJCulURRxv8hokoiBQpRG2jHvTk7jRhRkT1L9lGvE8sLS3NJiYmjtGYjGeBMOLZzom0dQPCDXoREv8y+ZhRDAhijd91NNI6oCP2rcWBQmZmZlZ6evpDvb29x3E20XiZ5aKiovdGRkZuLS4uBuyJThFOfn5+cVlZWX1JSUltQUFBeVZWlh4eitG0YPW6O4cGBWlpaenct6q0tLSuuLi4rrCwsIo8VOTk5BRqTQyIciHY3hUDTeTeFeRDeTB1kJGRofegrlEHAV1/g2uXUeaPdHd3P6SqRVEsU/fvjY+PfyeSlhK0BLFPYBuJeXl5p3t6etSQYjDYNYyndWJi4p3Z2dl9vxMjGdTW1p5paGh4nvt8kut/jPt8iBD5SbzcIzTkUxhMEfnQsmjjeLiAdqRBSoXc+2J1dfVPYjCfRCk9DxE+x+cpoqgnue/F3NzcsxhPFWSZBClOBdpY5c3Jw8N1dXUfy87O/im8+cfJxwdVBxDEw5T/OKScQ/ry5OTkmHPavkB5RPjP9/X11SnKgJsWSPvBwMDADzUN2znMwmJn6JUYTz/99L/DwUstrGMwy48++ug/VFVVNdw7wj9gAFEYXv5jjz32GT5fxTCGMIglPmsYgkZO1vi+rPty3ODFixe/ynE/g5FmO5fYF9SHAikcp2z/07Fjxy7DU9OQkzpkdW/3w7beILZMPcycOnXqTY7/HysrK+sD1QcDARY/8cQTn3/44Ydfomzj3Et1sOp9f+pgsby8vOOpp576b+fOnXuGvKY4p/sN6vOzlP8WxVAfhN7SPvLkk0/+DxCSwg4LC98hw0Tuj/B1XQ0Kcrh1+vTpD9zbu3eIHPDcRTT4f821bmIAnvH4LT8cvo4Enq+oqLirc1AaBaT7DQwvBo99/vHHH//vGIaWXdvyvps/nLYKkQ1j0H8BqTyocpDuN1AGFRDOfyKsaZMyI2nL++qjPELOs9T7DzHun+W73ytQq/zU478T6bFpro9C6Th//vxz/BYR1bdkQ4wAAHLIojE9QnxaKoWPXUTj0a4NDw/fIS7f80NbGFnuyZMnf6G5ufnfELrUc03X0Gi7krvmv2Jjjw1qEs/U1FTu0tLSSYxzju9N/kp9QppTFOn/c/PmzU8g2bMksT3Q/fDaUhjm+QRtez7kJ2p+fj55dHS0DmLLJZ+NY2NjQ86pe4JCG8rx2+ThN5H1Jbq20nVflZ/6XoEEpKaiVQ/6UAdx3LuU/TV4/+GRkZFWf+ofQqpEKXyyra3tAmWM0j0hq2bCxv+mN4A7h0UELEEEADTI+OLi4urBwcEHl5eX1aCiCgsLJzHs63uNidUZiFT/ZFdX178l/q3xGKEIgVh8Cfl+E+N7ne+zGIMMxzVQYXZ2NoNzqojXx/0hKIitBmP4d3fu3PkEJOOuc4EHV97mkPy9GFAjBjQ2PT1doMt77u3JByQVz77impqadOrj/ZmZmT2t8K2w7ezZs/8MA/0VyKFUabqunDeevA3ieIk8fp06fpVPO4SVODc3lysipT6iqfN86qcMkmmiDrqoj39iOB9w/PjxpyGDT3FuubYp9zSE8wq/x7chwIhaa9QSRACgHnwabibe5RkaUCKNVE94ptF436VRNTmH7Qoaeizk8CwG9W8xjnPe5ED40ErD/X0M4Xf4/JDGn+PpGPUYqAecT7iemUWe+kGzk7wrFO/X19f/SmNj4y/g+XM9Bg8BrpCvH5OH34UQlIe/ReVcx/if4l5pm++vbdRLEsfmYMzrXOvaInB27whJ+HPnzn0cA/016uC0pw70H3K8RZn+F8r9N3x+BCG/CxG9kZube6WsrCyW+j9BnqQooknPhcg03HyNdIV/PkHkRDl/4fbt2z+hh7OURl33pqen//fu7u5reyXcow5LEAGAGg0eKw6jPE1jrFQbwh6SadAzNOxGPNqur+DDCKIwpoeRzf/i1q1bz0IwMTIKyXm8+h0a++/dvXv3Cx0dHY00+ricnJynURmPYAxGAnMch68bS3UMJI9zojHuVpTGoLnJDlDH3okTJz6G4f0LSK1a9xZ0bWLvVyCp379x48Y32N8qgyN9mTL/JN8LdKyMWMd6oG2IJA3lkYXx9gwNDbWQr12HYlEdpxISEv4VJHUJA43VdTyAwLqp2y8Rel2XJ9eHck5y7Q4UXBR1V0VYUaL8cFwc+/MaGhrW+H/b1xGl06dPP82xP0c5TScz9bpK/b+Pmvhjrr1rPYYb7ESpAAFv1oFX/S5GY8bIadzxeMCPQhIfkVcyB+0AjKg6Ly/v55qamj4oia40GQdpPez7SzzaV7hHv9KzsrKKOKYUQzC/H9dfxcO/x3FdkuECjTy5paXlQ0jxX9BoiEncBtwnqra29iFI7Zfwksdlxx7D5P8a5PEuRvljQg53/J97q1NwSgQm6HjKOsCnFzIx7CKSc67364Q8582BO0AKBtX1q+T7SSkxTx48gHAyCW0aIL0Nb9nmPqsQVQtevt0r3w+gQnL5DT6FKvq4QjezYxtwfJQ6RSnTpznHzStE3M/v+mPIoc9JiihYgggQ9Lo2vMyreO2rMlJ5cbxQFemfxSt9FCPbtlddow54zp+jYX6S47PVuOUFadSTGNbXWltbv0IDdTv7uFS2vKOOEbCXCdTLt6qqqv4rnrRFaboG8Xthe3v7p06ePPnzOxmIhjMxvM/jtZ/E1mQrzh4Xs5DHhklfHLeCp5/0JggMqQ15/hJ5vq68KQ2jTrpz584TkNQ/J3/HzMFbQCERCuqXIIdPUQc5njx4yihwrWwUyWlNg3aSXECIGgJ1X9kviOj4DapRcL+EOvrgZmLxhkaNyPev8Bt8mLBJq5RLPSxDGjch5hcJmSLyNQY2xAggUA2zGEg8xntC/QAkRdHYS/D4+RiHOtDGSZ+i0butnuPr8HC/gKf9JcKHehmGdtOWV2nU36Fx/xca7W3ncAPOeRDv+DG8Zq6OxbjGUS5fgEi+ibFnYEgnMJgkXQuvn0VDL+MeZG95UJLcuYzp89AkLEjtn2PEn+Feml68Aer/QJl8F0N7G9nuzpTE0ybj7Z9A3p+BPLhVlBRAL/+/DNn0Us7z1IPJA/dN4NpVyP0k1M4IeR+iLtxwQ+rp+PHjn4PMfqu/v7/KUz0Q4SpZjOZ8sw0pxePRpyjbt/lsCBk4ZolynCKfz3Bpkx99+B7Nb1AECWezf4F89Xkbu0gDYjiH8vlFyOkXFV7pPAGybaeMXybk+zaKLSJXKbcEEUCo4WFEA5BBAUZQT5tKpLHH4MkraXQnUAlFNLoseStQzXGP4nU/R8P8XGdnZ40apowDo3gAg34TJfKHGO7rXHNDxxjnPYZhfgxjN6ELBDGK9/wyBHOLc/sxuFKMooH7SyFGSWpjQKe5ZhYNPg1jKcJYjmMUl7CPf3bz5k157QyPYXhD/QrE4B6CcPOBF0/gWg+Tj/MU2/QVkI9Jjn8RI3sdoirhmsfJg+lEhUQSOfYE1yqD4FLJQy51UEUeHkVdfO7u3bufp57KPbxBvpZQPq9DrkMosxKlcftoSGMRcvru6OjogDnQAfuWKVMNpPmM7uUpi/5zzRhUQCXkVAkhZnHvdMiMaio7wf2fo+4+Rx18lvyV6Hj9BpDcOIrmBUj3zymHz52cFhY7Ql6ZhvXQhQsXvkiDdCfa0PDWaYiLpE1CEp0YShsx8wQksKR9+ug4xe94tKuXLl36LYxhyxmBTz311L/CGGc852Bwjbqn9pEW9fDDD3+Mz3cwMvfeGO4691rE4Ma5dwdGOYShLeh+2u+5lj4UwRzv+a5JQyIEtl0oZHn66af/3xibOmDN+Rhb5+OPP/4L2n/mzJlLDz300EvcQ6Ti3oPrraJ2ZiEHDZd2Uo4J6mXFOw/kc+3s2bM/UjmefPLJf4Oxet5Psc45vbrH5vwIOh4SvubJu+ccz7VJX6FO5lAhg5BDK0Tdp23qYNlzrD7kb+LixYt/BUFdIP1+1owg2D6IAENeFql8E+/+n0+fPv0CCsG8AFZeCS8ejzROl6dU/wTHZOBhzXqW2i+DhhzexXj+4vr1639LqLDlnH/abIK8pLMpL7/GtshI11nnXI06/DEN/GUMeVnXlmfmXvGoiUzuXYEHziMESEC2m3vrgzFL7g8Qd09gyObaDnRZGY8LSXrOHeY4d/iSMELhjInfUT5vccrvQFw/JA9aIdrcQyoAmZ+MRy9GaZRzTgbXMiM2+mCcc4Qbr1EXv4O0/z510Ex+3KFittPhhjOQ530dv1x3EOJrUX0Lsm3xiP7r2lISqJ0kFEF+b29vNcqkSNuUQ0NARi3p94LcXuBaf9LY2Pge6RvKHWmwIUYQQINbpeEPY6S3kbSLeMgMkrS2wAaDVMP1OCgMYpUY/Qd4yz/EwL/iPWKwGXjqJyGhD3nkOB5xAGP/Sxq1mZCk+0MA7aR34XHjMMACklK3u7c6VVEzsxjmK3jVv9aoCOcrPPCEGC9DKpd1XXMC4BrrHFvCPT8sotO1MP541MxrhDpvkLc1DLEHg9UQpIgwj0+yJ8/Kgwc6l7pSZ20fefgOt/nd27dv/4AyzUMECVzjRHd392nn2FhU0ASE+Cp1NGEu4IBraIJaDcTzBNeIot41A3KEOu2hHMq+yMAU2vv+Kj/ENEVd3UWB/DXn/ymhRcTNedgKliCCBLVGzRfAgG7S8K9jOEM0wiUaaoxkO4jHWIyrk4GgHN6jIf/J+++//zXO2XHMXgSBET7nbMqwevGEX/DuuFPjxkB7+Xqd41sxMq3SnApZyEg3/O7sv1tfX//f8Kj/hTzfxQDP4eEfxAjNHIvtCILjskn6SVSJeUCM60Zxrcsc+xrf13T8yMhIN4Z6A8MbQkkkkZwkMqDM8Z7LcSmR3BiK5w84949aWlre595GmUAq8xjuMQjiCY6LplhRkKmmWX+Ha5thXw+ogzl17pD+Eakl5R2CaIY0/rCgoOAa948WwSik4RoLXGOOMgzz27xHvv+evP0RxPAtCKJT+XcuG9GwBBFk4ATnhoaGOvh/B8P4ESTwbWT8FcgiD5VRJidFo13HgH6M136B8KPbOXVb0JifgiCedTY9BPHlzT37MlCMdxSiaMa43sZ23sUQ80mrhigMMamPAK/9ReT872CEbXjTOMjkafLxsGzUIQh1Um4gCAEjS4TsPg2puA+HYWw3uP4b5Mc8ByJDY/8w3r4Ruf86efgxBn9FZKGOQ3MSwFBHudyf3r17d0NnKIau0YkK6kqdj0kiE/K4ynUuk8dGb0Nmn0grkzJd4J6F2gUZrHLfv2lqanpR9U/5vwdZvEqdvcyxL3DPLxG2fI3y/QBVdmu7sC5SYfsgQgA1YoyhTzMAwWudnZ2vYljznraNoa7R6PsxIr96y3W+83VLSJFAKE3c/0fcZ4Ms1wgIdtXkmWfBtbbqlFPyfemQwCwhwLgUgQdwSA4kmOtsusBgR4np33/nnXe+fvXq1T/nvm85Sso5wrRFKZb72iTE1w0htHp2cd9UDPs099FiMRtAHQ5g/NcUXujakGMGIdNJ9ZmgTG5y71fIwwvvvvvu3ykv165d+6HSUU8D3pmxuAdLEAcAGq/mBRTLiws0fM1OGqAxb5joswM2EALteiujvg/q2IMsihz1bgwIQx3ESW944pK86PqusWxnODh6rQMx4j2gQJlySNt2TQqR5fT0tPpKRqUE7qWadIVeyVsRBHXVl52d3eQhIvKbAkmcQYXcRxAa/iT/r3MtowTIoxaxeQKCqTYHACkh8qnOW0sIu8ASRIhBI4+hYedhqNme9olBzdBmR2nIPj3QxHlmwRRnU9s+hYrp6en5GGeeIgWPICDU6Scvbiwvo2GfCMtJMZDd3tdWuM4KRj7Ix514RCiVCRHlOJs7QWVwJx+pDNxC7768j+xQN30Y/G32m9CDaoomvGjYiohEPoQ4NwiTupVleCAGxXYGgqlzDrHYAyxBhBiK22nYJRiX+7wFsfAgDdnnx8I5Z0WxtbMpL6mJSjuqCLx8AmqhFuPaMDxIvN6DculxNj1qwTMvQNu6nyY73ddW1D9Aej8E4cbthAPZ3CrP2dwWXHeJ4zQF02yjIBRebEkQMnry3US9TWq3QjNClnyItlyE6xzmgvJojsVlqtrkH1VRyL3OE3rsayGdSIQliBADY0rEuEsgBDP/QV4Ozz6AAWzoG9gJNPplriHjNNsYTCx2suNbnyCCFIzkBPcx8xQEzlnh/l14aHdWItdWeKHYx1t+y7tvqSD4aLKRmYMhEA5kc937+iA2g/to+TpvBSFuEGluSXQQTx8G3uHhA0gxnvJoYZv71ArkMcL1vouSMSEbeYyDNB6DNE6ZAyx8hiWIEAND1UNbxRi1R0GskTaMNPd5pWTOXcA43IVL2I5me8cl1ggl0onbT0EQ7uzMnJycYYiqU0rASZKhihjMzMZ7KQZbEgRGukK+ez0KQoSFvNdDYVpLYkdFI4Lgkt731flxW91HQEUMk9+76nwUuHWiyoMquu9JVY0c9ff3vwuhtIlQIIjorq4u9VmcgZQi7vV5+4EliBBDHZQ02Hx5NW3LEEkbnZub85kgMKZFCMF7OE4EseNCrRhHLnH7cYzKbMsOCwsLG/HMXSbBAWRjFITydS/FKIktQwwdi2Lo9XQIChiuXmacDeklOUlbQgSB8boPf3F9Ecq2xgvxaNbmDc7xdD7GDA0NHaNcW4YNKIaB/Pz81zIyMky9Tk1NacbmI1VVVcfNARY+wRJEiCGCwEjN8mjaxlC1ruIoXs+V6buBc6UgZu/ZlNmOxounbOd9ZazZ2dknMJKCe/Z/T7ngfZuJzztNggMMVweY50PupRjI8W5pvBiuOik3LCmHIaL8s3bsh3AUhPfEK0MQDlHcB+4zTh3dpdymniizHmevIIwwS9JthoZ2Ke93IAjTv8L1tTaFXhNwwRxg4RMsQYQY2FkCaiFLDVyQIYJxSMPntQ7xnnPE/a7XxujjMNJtX/cHOeRDQo9zD7f/gePnufdNjGzDxCypAvLj3Qeh//GcvyVBcM35lJSUEU+HoEDEkgFBFJuN7SFivMdWgHNFDDu2Rwy+h7Chi/PMNveJpz7rt+p8pH5XCSuuQwg3IBHVsSEUyvxw7i4L6Fj8EyxBhBg07jji6RxvTw4m9zKDj7Y/r7jfy9lq+nDqdl5exkpMfkGDDtqWgRUVFbURXjTj7V2ZLygz/NPogsd4xWBxXPpe8L8JkJWGOvswQneok+vmpKammke0twPXXPNWEA52HK5FFYxRlrue6EWksri4eCwnJ2fLe1HPWtDmFQihXdtkNW54ePjBmpqaS+YAi11hCSLEoMFqBeZ0eTQBI1mm4U7L45kEH4Chz0IIGxQE183gWvcZGIabQihxSguxcB+TxrmrhYWFVwgvjOF4g3ytc71FruX9oFLCVtcWOFbPeHRBCO5y8BBELqFACeds2750G0hoc5lJ2r5zE4PXo+G3uLYZ8eEaMRh8XXp6+pZhBvW0hIr4AQrjpoc72T4BoT2J6tl1GUALSxAhB41TD0yZR7VlCzTUWbhhT8uZcf68CMJjS5wvA87ECO5TECiFCoz4knd4gYFNcfxbg4OD9z33wbEKMTRhyyUItndUEHjxLkIMd5o4oUAeeduRIASOcfs5uIf+bUsOghQB5KoXCZk+D50D8VVSnjKuteW5Q0NDvZDX2/n5+XpwTY+LJ4+Pj59FRZj1Myx2hiWIEAKjlqHpsW9T72rTePhpbHJPy5lh7LOECd5PbiZwrUzS7vPyyOtjPT09j3kEijgE0miZmJi4uVVYQ97EEa6CYFshhp6M3DJ80cGTk5OdGKkZLVCZCAWSILEC0rZdA9If6F4Yd0dGRsagh3soQyrfK1FJW07vpq4WIImXUUzXnKQovWiZUOV5QhW/374VKbAEEUKIILDhFIzIJQgaqRSET1OsPRBBYBQuQWDAWnAlnWtvMGK8ZhGe/QIG4a7zyP3mSdcqzR0mYRM4bp386ElMV0Fglwlk/b4VnDzgWj0eghA4XvI+G0Pe8T2h3Mr1+tSFmSnlbG4Lwhct0Nvk6YcAUdRHJQTgPmuxGVqKLy0t7UpOTo55/QAkk8fnkdLS0lpzgMW2sAQRQkimY9jqUncNgbQFDHJDR+FuQNJrBGLaY0+cH4OKyNhMEOXl5ecx3ksYrEnX8RhtP+e/RvqW73jgWqtca458uv0DnJ9IPu+tp78FCCnGIYhRqRMPMNos1Iv7OPdmkJdo6mFz+1vlXu7IxlaYn5+f5V53NO3aSZLBV1Gube/FOfOoHK04/q6TFDU8PFxbXFz8PAQaUJUTbrAEEULIgDEMrWlgLFsymXhaj317dwjuCoxvnmu48yYw6Gg8dpo3QWAwmcTeF9va2s5yrEnDFlYwiisDAwO3No9eeMCx61xPfSIuQbCtEGPLPghBpILC6OWeC557If2zuX8F523ZxqgHTahyQyK2detdiRIFMcO1b1AW9wlUQogqSENDmNsqkObm5nfS09PfQ3mY4WTOKZ6enn4SVVFoDrDYEpYgQggZC21Yntitd7zuopy2s+kTUACLGNc0lzPWyPlK2zCKUVtb+9jExMQTOE83zkaa90FIL+mRaCfpPsiDQzZayNVbQSSRz21DDIdUOvRMiZMkQ86CNCo5b4Oq8cAhiM37tHblPYbZBtxnBe/fiKG7bytDHWRyWrlI0Um6DyIWiPXNqqoq0xdBncVCEnrJ8HNWRWwPSxAhhAiCf/E0Zo+n00rLWpfANUZfICMCmgthzhNB0Pg1D8J4eQw1A+/9TEtLy8PaFjh2raio6HZvb++PNcvQSb4PurBGSTBgbwWRvBNBiFQwwE5kv/vYOGGHlqMTQWypPLh+LPdxwxZuayZo6f5O0rbg2qOQXbvHrjklGoIsLSwsrDIJ26Czs/Od7OzstyA/Q8hjY2Nak+O53WZ9RjIsQYQQjofXxxAERmKWYpeBaXsv4BStqWiGR0UQKIU05/oPNDQ0XEI9PA4RpHIPJWk0oyctLe3beN9dXyGHgtBy+Ebuy15FEGzv6GXHx8c7yY95elL3JAyI51NI2pYjBRyjFxy71yTvZniVz651ARmo7E2UxyxrJ6AiSjH0HTsdUQz93PPdkpIS84o+8pdC2lnCrlOUz1VfFv8ESxAhBI1S1rqhzjEIecxdveZmQBBLGMkMhmW2URAyYq34rAelPtHe3m7G+XV5pL4ezLqFB31pJ/XgAYSwxDnu3AwIQys9bdtJKWBoeqpzw4pY6qjMy8szr9DfDBEE3tslCPKO7a7OOfWxI8jPIte+gWJxQxrUQGlCQoJePrRtP4RAPt+HEH7MYeY+EFsx1/kQysKqiC1gCeIA4GUD+rJn9SBgTHqi03uoM5bttGPHjn14cHDwcWS4ee2dUFBQ0ErI8Y/9/f0bHszaDlI0GLv6OExeHfLZ8elMvPEs4cQgxqaZlSZNBAHqSL+vH4K8JWLoevOYk6IirarDdtf6gFiWMfRbEKEZiVE5IQg9AFdG2LFjPru6upopyxuEYaYPY3p6OnNgYODJ/Pz8bUdBIhmWIEIIp/FrvP9ewj6AMSxhxN6zKWPxgme5xed6enrM8moyPgxmFUl9pa2t7Zvq3DQH7wLOE0HMe+waQxbZbNsH4QH37iKUcWdnQhqact3AtbY6N4GwyO2fgIwQLiuaE+JTfwyE0A/paSk6U07OjYOQCiHDMueQLSFyQTXoNQTvSVnpdpBNFfm+tFMnZ6TCEkQIQUOWu1QHmes2gX6DPTMGxriMUc15CALjSMcg9Y7PS7Ozs5pZadIhhzsYwrcgjS0nRm0FERnnaLam2ebacVxvxxBD4P6deGaXIPDOWRhu/TYEkcg+t9wiCIhoRvd2knaEFEtycnJrZmamOwuVchcS0jQ4m9uir6+vGTL4HvkyhKn+m8nJyedQEVuGQ5EMSxAhBG1f3lGdfy5BkBaLcez5d8Dzack2VxHIiG/cuPHY8PCwecuVuAi5PwtB/Lipqell5zCfoHxy7c0EsetQoB7+8oxkKA8YcQyhTjmGvOHBKA0rcg/zjgsPRBAYqs/L7kluUAd30tLS3LCJexVyr2Pke8cOR60tASFcRm0o3FCnZxyhxzlUxGlIY1cijCRYggghZHgYhRZjMV6S75odpMlTe/4dOG8Vo9LKT55thQKaW2C2lV5bW3sZI30RCb3hDVS7gWtorQbNhTDbqHKtKKXZlFvOafBAD39hX97rW8qrY3e5GyYxERpoWboNpIFiWSavGxae2QnKI2HGLa5lHsISCB20Ulc1Yc2u4RBk1lFYWKh3gJohT+6t9TSeIs2qCC9YggghaLwiiAVsxSUIHOG2D0LtBM6V+/UOVVxoF1K7Pysr63t37979kZPsMzhfazXMYLTe/QHJ24QKLlAACnn68eLuxC/SspDzx6QanCQpG72rNM3ZNGTGtWcgoj09k0Ko0JKUlOR54Y/IKIX7FRPm3Pe+jM3QcC8c8yPyYghN/Szd3d2XCDOOmQMsDCxBhBDqIKNRapq0J84WQST5QxDbQeSAsa2iHr7X39//LV+GNTdDRIbB6ZX73jM8UzDGXZ9+pIhdSHdX9mOwekbkFE7dHV3AKLM4TirCQKqetDHd10nyCXr8m+v2oCLMG8wF7pfL/evIu6tYtoI6bCGJG0VFRXd0f34XrThVRT7Oa6jYOSziYQkihIAMRBAaeTCtWY0aQ9nxQahdsEFB6HqyC70fk/u82NLScsPZtSdwHT3zPUW+3Gcj2E72NvLtACF1Y2BtzqYMNpG0BgSESy58F0F4r0+xRppeAehTB6UHDpF1ZGdnu+/1IFTIRbGcgJR2nfhEiDLAsT9MS0szD36Rp7ipqakLJSUlVkU4sAQRQtAABT2F6Qkx1KBTacv+EsR9XhJ5P1NcXPz3zc3N39+rR/YAMtCp0+TLnSxFmhTErqswEdt34YXdERONrGKIFch+9/0VkEEu4YAbBhDKLPIZ8Se/kE8T13ZX5sbAtT7lMa637cNlHkxMTIyNj4+/xvmefozojo6ORyG4M852xMMSRIihoTw8sxmaw+hEEJoivWeCoP0nY3yZuoYgspFNnD59+tuDg4P/iKH6+p7P+8A11yCyCYjMM5U5CtvVC3N3JQju3Ut52vkYNeOQYFZOTo7mQ5hyUn69AtAlDBTENMcNiD2dJJ8xMjLSAiG508chiBTIR6tM7Trqwj3XtS5GXl7e+1xDD4qJNJSvk4QeO86niBRYgggxCDMW8PKK7802xpOCp95VunsjNzc3PzMz80li5hMegpBB0tB7ue4LWiDFJPoJ8qhl5CYwZLfTkCR1Uu747g1B54JeZL95TZ7AtdIglzMYoemYJL0AQ3ZXlua60xBnLyTk3efhE5wp3kOeiIJ7x2g+BIRUZBJ2AfnQWhavU5+msxKSiELxnC0tLT1nDohwWIIIMWjAi6mpqaMyaGdbS7en8/Gpo1JeuL6+/sP9/f2fwvu5IwG6Ho28l8bdtACcZL8gC+cSMnDXo2PAqSiUXQlCgPT6CgoKmjxlhCCkdk6LIDBGvTgoj2PcPgKui03P9ui+TpLPUFm5Tz+EJMVj0rh2OmSpxWl3VWYcOwvJvJmRkeGZ4KUl6U5C4nZOBLAEEWKgoqUghr370PiehfH4tMoy5PAw1/jZlpaWDXGyjAOOmUNR+NXvsBkYjhSEO0sRgtAj3z7lcXJyUovHtHgpCHl6vY07C0POhwc2jBJgh7MQW7dCGydpTyBvnVlZWe7ICZyRlZSUdAri2dXAFWaQN51/E+I2dUeYkcU1GyC5LVfLjiRYgggxMO5FGu8IpGC8syQtyCFtV+9cXFxcTkP+5Tt37jy72ZZkjBiElq/bsxfeCvPz83pS1BCEYnMMRqGQTwoCZdNHXlwFob5HCKAAhVNJbH8MA3YJQscgKuCUSXfZ/L2CMEGL1bgdo1IQkFKdL/0QAmXV/I23CN08nZVRkMSxkpKSB53tiIUliBBDBIHxDOGNjSFjfHpKSQThhgtbIS0tLR318IttbW0fn5mZuW8+Ag18PZAKgnwuJSYmzoh4BIxIBLFjHj3AYCc5vxUDdddrwGDjUE5nMeSHuJb7aDWqYpV0dVDuaWVvb4yOjnZTf+qoNMO+EEQiBq5l6Hzq21GYMjAwcJk6bnWSNCeihvPP8tl1VmY4wxJEiEFb1JoH/XhOoyAw6Fi8cx5G4s4L2AwMNfHUqVPP02g/09fXV+oxWm9wvVUMeBay8dvQvCG5j21MecJwSEmrcfsUYggYqfoh3Nf1oyLiIYEL5O8DXMvtQETWj0GYXez3m9i0AC/36ec6njoVSeWjtnzqqBSoWz1odhfCMvU3Pj6eDZHVKyQyB0QoLEGEGJKzeNNuGrRHvkfLYOCALR81xvCja2pqzkEi/6y1tfWc5L7g+e8BxruGgpgJVIghgoAcNFPRxDIQm5hCJHE/O20ByjSEZL9Dnsw2xBAHuT3S39//uNZgMIkAghiR2tD9nKQ9g2trVa5BjHnMkz3qK5mQph5l4ZOKcMKMdyE1j4qIIp8V5eXlD+s3cNIiDpYgQgzIYZGG143hmJEG2QXxdzGGuOX03tLS0ioa/r9saWl5EkMyfQ3yynhL54h7oA3rVXbT2Mqe5xJsBRkseZyEJAzhkO1YSCmFNJ9GW5D4w5RJj5obw1c5e3t7c3p6erJnZ2dNOQSIcQxv37YfBSFAYP15eXldnuuS3xTy3kAefCII3V9hBqTivo6Q0KWC/D3IdSJ2NMMSxAEAAxmjIQ7JMUkJjI2NaQXoHBr3Bu+ck5OTh3r49ebm5o9DIvHareMhjc7KysqWTY5NBja+n1jeG9xHhj0OH7hvHcfIfXoeQ6BMw3jx25TLPAuifGO05iOy8AADHMUwW9m/URLtEZBMH2qkw1OF1EMipFFLfn3qWBUgsFZCvWbyZOoQgshFWRxLS0vbNvwLd1iCOADQcGczMjLa8W5mG6PRuzWLaOBuJ6CGPU+cOPGTnZ2dnxkeHnanJUMaE8jel4uKin7IOUseu+K71keQXA8UQQhjOE/vlwSTxVSfjEUeGaXUhfrp8RCZjNdjwFxbZdTis70Yt7uEvb8YHx/vJ6/dXN+wD3Uaj4pRR6NPhCZABlrN+25hYaGZE0ERYilDWXFx8XHSN5B3pMASxAFARoyn0rLtHq+ppzpLiNlNpxohRExDQ8PjqIZf7+7urqWhGsNSWEH6i3Nzc//AYZMYmdto8fTLeOyAEQRkoOnWY94Kgjxi0yk+L8uGcQ0j+xtFhCKEzYA8+ihXG/ned56lWPjXQ37NtVRnpBXh/XO17Ss45/2srKy7zqbCvyLU3qOUISJHMyxBHADwbgvYXxME4ZHfMTiv0vT0dEMQ1dXVJ2mPv9nY2PgoRqokQxAoilcIT/6MRtzB+Xooye2IYP8q15CsDxhBkM8RSMkdqhRBQGw+E8TMzMw4ZbztkeybgfH2k+cm3ctJ8hvUkzBAHY56nD3bSdxD/Qg+zYcQenp6NJKh8M30iUAQOdTDGX4Pn68RTrAEcQDAKOaQv7fxduaV+fKuIyMj5TTMYkKHUiTtr16/fv2j2LoZI5REr6iouI1x/uXdu3ffQpZn0Gjzvb0yaXolnc9Ltu0GhQjkUwrCe/l7TZX2mSAwrnHCqetcw32PpjcIVwaGhoZcb71fcK8RVFiHJ6SBINS/WMt93LUndgN5nuB8PUJuRkQg5BTSalEVETncaQniACDjGx4e7sC7Dagxy9DZ1lDnJVTCrzY1Nf08xpmidDVSGn1feXn53zQ3N78CMSxCJHl45wIPQWCAehfnEAaxr2cwvMG117nHGPlzr4mCSIUgdl2tyQO5dIiwFa9uyukNlMkq5e2DINy1HPYLjHmEe3V67kU1a+5FJcTq0wQvDyDaJkjafeCNUCkH4n5wL0okXGAJ4oAAAcwS20rOGnnNdmp7e/tnu7u7f3twcNA1frzfXH19/bc7OztfgETMeyDwirkYnnsM2yuS6xhDQMILD6ampjYoCPKoFwRnQlo+d9iJZNQPIdvy5Ff/Ib0RDLmLa7ohzH5BfkchMD1ubsIDCC0e0ihHXe2JIKhnvbWria8mw2Qxmzp+mDLs6anbcIAliAOCvCte9A4EYNZtkNFADtltbW0mdNCHxv5AXV3d65DBn0MQzeZEgJHmjY2NZXkMDiPWS3REEHta03E3INnnyKPbSYl4ScX4svj43G4w0GkM6wZGukHd5OTk9HH9DspwrxABAKHAGJfrInum4wYFETU+Pq6X6fgcYggDAwOap9JJnRrCRUFoWfxTlMHnIdNwgSWIA4K8PY3uCgThrjhNg5bXM+QgJ11aWnoDz/Unra2tVz2GhFxWIy1YWlpyOyg5RrMAu0gLKEEoFIIgpkRUAsYuD+pziCGIZMiXnsuYcZIMMOIl9YM6mwEBocEsJKb1IYwqUd8ndZwLQWTvRfUojON36CwoKNCUePW9xI2MjNSg+Ar3Qo7hAEsQBwQpCBTDDRGEd5vztGONxUMQf9vU1PR9bxmen59fgt0Wwhdug5dBYIjtgSYIkRIEMQkpmetCEHrh7p5CDNQOzjhWK19tmI2IAirGcAO+xDz1MJ6VldXnqVMZN+RU4hCrz0A1dGqquKeokE86qufsXq9z1GEJ4gBBfD4FQagTT2+2Nmn6T9pMVVXVKy0tLV/AkMxIhwd4sWL4olDfPY0XI14gDGnDOALWSSmIILiHhiqN95e64ZPCts+xeEpKipbU0yPersxXvoeGhgr5X4dsD2hcj/Ofzs7O1rMuTsoDMdy/LG2PsyFRDFpb8y7nmh8Gokkmv2cgCJ8fWAsHWII4QGRkZGTT8Aowng2/Q3V19Xt4sD/v7e2973V5NNBi9hmCEJnI2CCUUaS0eT9EIKEQA8+v2ZTu0vkkJXM/n2N67D+VvB3HAzsp9yDPDtGVo5QqnKSAgGtOUUeavWk6f8lvLGKtiLQ99UOMjo6qQ7jV0wcD8SRBwqe5zp46PI86LEEcEGhoyceOHftZSOAROX4Zugd46FHSt5wfQIMtxbuVeI7nMqt4xw6usdECAwApCIxrBIJw+w9QEKkoHp9nJ5K3/PHx8QoIYUMZhampqVII4qyzGRBARNOENH0oCM+j33GkFUJUe1IQ6oegTntQI/3KN/UQo34Iyl7A9saChDEsQRwAMPK4+vp6vUfzZwcHB+977TxeMHerF8nS6GOw2SI8mevFIIgpCEXrKQTkMe/NwLDHvDsYJbWR3vc9WLYVyFsKKqmBUMpdwdoblL+ca59SJ4WTtG9ABnrkvYfsmREICEKPbau/Y88PXM3Ozg4UFBTc9WSP62RAEPWUP2LCDEsQIYYMq6ioqAKP9vnu7u4H8Uz3eVY8biUN8xKee0PHXm5uboHkshq9kyQJP4FBNJMe0DkQHkBWWtDFfWALglAfhE8EkZmZmQOnaS2L+2S5TofocnHUNaiMPcn/nQBBzJLnHvLsLh4zNjaWT1XumSAIjQYhuUbKYMiXa+lFyw3k1+fZpEcdliBCjKysrJyqqqqfamxsfB7P6j7C7fkIxL/FSPnH1MFnEhygKqqRve5ybQLGOoWh3ZUkdpICCk10wtjc8EUKAq+fh6Hs2nYwpBzCiFPk2VUInjIKEJuWqC8N5JusuP461xyGON3HzCEMrcidtVelAkFounUbBGHIFxJWuFKfmppqCcIi8JAiqKmpeayvr+8XNT7vJOupxkU+8xi78aw06FhI4jjxeZVziAEGV4XBucuo6VgMYRSproe39v3A01bQbEoMRATh6c1PgRtydiMI8hZFeFHa399fxzkmrwLkYqaGe6DyUPbzvhCOr+B+8xrq9NyHqommDPl7VSqEFFMQQgd5NmQDaccPDQ0dQ1VsGTKFIyxBhAgygMrKSr0z8ucJLU7iPU06jW/l2LFjXzt58uQXiouL2zweFllchmL4oHe8K36BWAxB6Dg82RKfTjymO8oQaCimJ8/u+0TZ1voKeSIAbW8HjD6XvJ/leJcIxQEQZBPlGvSUEyIs4ntAF4fF0y9QLy5BcP1oPnnkZ8+hDPkfIdxrpw5MnSu/EEQh2//03oIwhiWIECE3NzcfAvhJQouPeCS3DKa8vPwGDfqLNLw/wXCumIOBFk1F3j+lOF7bksd4sAqII8Njm3pAC+ncRHpAlpnbCuRtmVvPoG5MHE7e9QBU1m4EkZeXV8qxF/DmruFjoFMY29+Wlpa+5zmdMqagIjQ6sKcZmjuBey6Q30HqxuRZBEEd5WDY/nRUjuuZGa5lGF39EBB1JXUfsPweZliCCAFk3NXV1U+iHH5m4t67Hw2QvOOEEV9saWl5g8/7ONErGJHpEMQI9Z7LOozpEXnXnJwczZfIp4G6hsmxQ3i4OxhEUDooBYxLk6Um8MgmX+QhhttlShGZA7YBBlRBedVBabapggeqqqpuQISvEBZdo+ymz0ReGZLILykpOb3bNX2FRii51CAflyBIy4E0/FEQU5BDG/k3+VW/CWRTDqFtuYZouMESRAiArD5FY/0EBtMggxBorKsNDQ3fI0Z/GbUwKiMn5n2PY10VgWfVYrbPoz4K8bw1Gv50dhlAEMMDAwO3aLT34pUggTyP4X3Nmg7q6iCryRj5tlOOMZ4Mjj+J2inQ8YK8OWHHZUivBWO9QXnazA4AQeRxzkXqJCCzKiHXJapEy+AbdhJBYOgiCH8UhIZNOyAIM0uV8uhalRBmRPRDWIIIMjDi1KKioo+2trY+R8M1w5ZylIQTbXjmL3Z1dTWaA0FnZ+dV5OzrhLeGRTCcpL6+vkcJTU5nZWWdkyEpXSQDcSxjpH14ZPPS2WCBe63jMcc9owIC5UjGoLc1EPJbg9J4hOPcB8owzjnS3oIMRyCOu5CF+3Tq5OSk1rfQegsBIQgITJOcBqhHY9SqLwxdCwPvWUFAynMQdwdhhRnJgSziyH8V9WEJwmL/qK+vfxSjeBbP6Y4+YFyTlZWVL7a1tb3hPTyJsQ+z+U55eXmjSETel7RS5PinaJgfoaG614AwRmm0Ws8xKMOb3iBPGyZLQRiJlCF/u34IjL8BtXTeI2wwzAekGDCsJiklSK8VMtDwodmPMUdTR1WEUcUmYZ/QPSCcfq7vhjGosSy29zzBSQTJtUYok65nrsVvUkR97NpRGw6wBBFEEIdnYkgfgwgeUVtS45Kx6DHukZGRL/O57/kJjOd99n+P4z2jBpkdHR2f4hrP4AXdFY0giAEMqxkjDGp4IXCfcfLtLhsnBYEHzcdg7uvJp7wZGM8pCLFM5RUIN5YgiLcmJiZMeTV8yL5WjM5dPxIjzMnLyzsLcQRk1SbqTS8fNl5f+eD6Gp716zkKCHKO37IFQjbxEttJXLtwr8OmRxGWIIIEGmN0Q0PDk0NDQ09gEO7EGoyiB0/5TYz+Fg33ngV5QQ9o4QB/wDHmGQC+P9De3p4FcSTpu8egMLoRpHkbKiMo8x+8gXFJrWyYbs12PkZy38SjioqKUxz/CCrD9a6QyShG9QMIwn1BLwbcSijiPk6NlNdEpguUKyDTmMmjhjo1h8Nsw6P6oiXz9jycqmtxWhdlNqNF/GxRXK8I0gj7MMMSRJAAEeTSoD7R2dl5UtviApzjcllZ2XukfQ0D2fLhKhk83vd6TU3Nq5xvzhM8huQB1xqEfNxX3gcTGPwEhub2QWAwqWwXwIH3KQiUzfmurq5z+q68i0Mgu46BgYFrkIQbDg0PD7egNtz+F6ojEel+Bq8ckOFDKSuRqOpQkFHzSfOHgMi2+jI6vTo9o6gDTbyyBGGxd8hL1dbWXsLQH6bhp3qMu6ioqAVv+u3+/v4dDdvZ/+3MzMyBzcQgo8MzztHwe1AQ+37hjC8gtJnyJgiFGOTjvslChAhayOYc5Xang2NEs6S/TV43rGsBYWhpuEbKYRQQikNrMKgf4r6H1/wB/LACiWqauKvS4N5UfwmCOlCfiakDEQS/qyZMWYKw2Ds0iYbG9HHCgjpty6gxhEXi8Pfa2tpe8vakW0H7IYn3kOtvKCTX+d7Iz8/vwqD0gFbQJkh5A/mvN07pTd/GmBfuTZbK2xxiVFdXPzY2Nnbe2TSA5PTuix8QZm1Y+l5lBO2FhYVtEIVJ4zj4JO1Bztm3ioAMVsneBAThPuUKaaRB0Hvuh0AtLBEe6QEwT59GzNTUVCF+YE8v5TmKsAQRYNAAkzDsR5D/5/E6ehu2SSe0aKTBvkp6n0nYBRzXg0F+C7K573hkfCcN1pXnwQYGIWj1KzNsCEEoJMiFBF2CULnBBwifTmmb40WKCrWau7u7r25FZqiKDsjuhqeOOCQZWzxH6LFvz6wQg+uOQz7ufbm++iD8GsmgvJOQ14hEk8oGEaoPJuwnS1mCCDBoRBl4/Y8joWudJMXhy3jKd1AP39vKULYCDXK2p6fn9dLS0qsYnmmUHiBte7h+i7MZEuCRZSDmZTJ8l7fPxKO6HX5VVVWnUAmaq2GeUBUghwHOecO7c9IbhBQ9lO0WRmcKh6KIo1ynIYgNT6z6A9Uz+fR+ElXTrVP8IQgB4lqkLN2cb7YpvyaKZUCCYf3mb0sQAQSNMY4wohbv/wiGYhqiDBv10Iwne5PYvNcc6CM0LIjXvs1n81TqWIzqvg7CYAJ7m4CY3D4PjFmvtTMeVHnJy8t7ipDKdMh6AEF0Dg8PvyKyc5I2YHR0dAjDu4PRTWlbxEOZCyGI2v0ankIMCEGEZu7N76COxTR+Ir8IQn0a5LMf8je/Bdsx3COLvIb1o9+WIAIINZbc3NwP4xmrRQyOJ10vKip6o6ur64eSveZAH4HdxdII02joG2J95O1xhTHOZkigMBxv7xIE+YqHuMxQJ2FCMYTxOGTgPmlKXSzl5OTc6O3t3TYU4hprhGHdxcXFrZ5+CBEPRnwWctnXq+5U18ozdWjCIoHtVLLr16rUuh7XGoS33P4jSDOTOgjrh7YsQQQQGEQxXvHJqakp16tADl00rHcJF9qdJJ+Bx9YLW+pRIxt+J8X5GOuzgejM8xULCwvqpHTf/YlxxOFNc8ljCuHFJcjhpEYiPOEFSkqTuL5P3nd8FJ26GoRUr2K4ZptrJJKmqeXurFF/IIMmzyIIt5OSbQ3P6nH1PYN8LfPppw6M2hHYzoYgwrofwhJEgEBDScOTnieMaMB4TJo8qUYiMJ531GBNoo/Ao0ZnZGQUIrlLdT2P4ek/RpcMET2IYT5oEkMAwgTNpnQVBHlKUESFcRdjdM9T7mpnl5SPHm+/iWp6AyNyDXQrjI+PD3H8NT7G03Pd6IGBgWMokFJzgJ+g7tfn5+cnua43QajT2K/nPcjXMnXQw/U8ozF6QjQLog7roU5LEAEC6kFPLj6LZDYeRYas9Q/wsu91d3frPY97AucloRAaaNRbTucl3j8BgXxUxOQkBRWQkt567SoIyhqHsVSXlJQ8Djk8yP5YlVmkiHrQrMPLGPquL+ZFLUxOT0/fUQeotnU+pKi3YdWRtq+pzBj0FHl2iZm6TGDbrxBDRIea64UU3ZAFAspJSEiwBGGxMzCMKGLmci1hT6N0n9isrKy8RqO6Cmm405R9hZ4CRXYfp1G7BCDjEWSIKIissbGxh0tLS+tNYpABAUxxX1dBYC8J5O0hhNEvjYyM1DjJBsXFxVchh1d3Uw+CPD111AepaNKUSeOaWnPhOIpsXyqC/M1BYp7Zj2aUhK9+P+tBPkf4Tdy3nEFs2WzbPgiLnYEn10NZ5zBarTht0vA088jsH/f39/s1XwHpmoaHqkPZuh5PQ2w0eJcohoaG6goLCz/OsX7F1XsBxrYgW6ZcZhtji4cQH71169YlDCdBpCVkZWWNoWrea29vv20SfACGNgbBXqF8JjaDIBKoy5MoqDJzgJ/gt1iFdPTeUrO9tLQkBvJ7dITzF1E2ClvMbwBp6rcJ6we2LEEEAIrDaTyP4vXMEJoaJIQxgRG9i/z2aWLUZiQnJ6djJLXYpdmWIqmoqGguKioa0HfdA4IowTifzMvL21eHni/AINYx3Clk/7juTdke6OnpiSVEiPaQooymqqrqLZTN96mPzUOz2wKFNcXh72DMJr5Xdw3kU0cd7OutW8ozHn7G0wEqkBTP9oZRIV9BOdcgsRFIwhQYtZhKkvo17jFQGMISRACAgijr7u5+iEZu5ibQ0NfLy8vfxVBa1UjNQXsABBCNIeoFOcUe48NrrSLdX66urv463nZEl9U+DalCHB+k0QbkMemdAAFOow6GnU1zf2+wbxJifKOpqeldJ8knYGhzlOM25w57bE0TkaiG2pycHL8nTanuqbcFbz4gz3qZr18L5HLuGteaoKpNvwaXjyKJaDB8X6RjCWKfUOMA9Xh715ghiBkM/DJpfqkHrqenDmsIL9yGh7Gofd5CMfwd5HPZSRZBlODNP4pxBT0WJj8iCLOGgzfv6btUTX19/ZuQ4o8Ujji7fAZkOIwSukW4ZLYpq5Z2q83Pz/f74S0PQSgk8ICkWMIkv8IMzl3jWpP8vm75yOee3lV61GAJYp+gAZfQSE5jPO7yajIi4tMrWmvSSdoTOF9rJ9bisU1DlkESj2tNhf7m5ua3RT4Q05LS8bTxAwMDxyGNB/2Vzr4ChTSNAd/3BKnyQZ4nyNf329rarjrJewJlm4cUb1AuM89Atg35HcvKyjIPvPkDhyAW+bhsRhL84B9BiKE5312IRuA3SqFOrIKw2BrIfS1Ff5K2YwgC9bqmHnnSOtWgzEF7BEaSifesovGZbdk93rUTMhglXhf0pKf7kJPmSnDO84Q6QVUR3H+K8pk+CA8wGJM/Qp/LlPl1iHHHiVHbgWvPce67XN9dZWtwcLAcb12Dgfs1rVwEgbJZ4nT3dxBBkF+XzPeCVcBPqo5alyBI0upae14M96jAEsQ+gdfT8Ka7WjWNZRZDfV898ybBD6jBYWwuQcgDcs12iMEoEu53DcL4scduSE/p6+t7grT7XvgbSGDE09xzQ7lEFuo74POtjo6OG07ynoECWx4aGmriOkMKV1SfkGQyyRWUq9A5bE8gb2IyKS13uJXrwg+xfikIEQT50SjGBgWRmJiY7twr7GAJYh9AUqfTWMrw4K7nxuNN04hEEO6kor0CgsgZHR0toT2abRr0El6r3UM6moDEPd7BcHrVLnUcaTKkR5H6QZs4xX1WuJ87OiEjprxSD29y/x+RP3casj+YmpoaJZRqRA15nniNQlVUFRUVHXe29wQpOPK7DOG4k6XIMz/ZPz2mvhdw7jr1rsVzPAQRJYKgDmwfhMX90PAmDcZ4bRmLjBXSGBkfH2/G27oTavYCFIlejlvE6e6oBA18kfu0YECGdNRQURh3ysvL35K8F5aWltKJ4z8MSZSYhCCAcKqYfNWrrB5AZtN40G+havb9+DllEBHelCJxkjSUW02d+kUQgggNg/YmCD0J63dfzcLCgmZnuiQJQSTyG/g1O/MowBLEPpCVlVWGvNdsPyMvMZSVnJycVjypX52TAsagt1aVqyE7SbruNHK723t0gJCiFSJ5k30mDXKI7urqeoj7b3jhb6Ag4oJ8Hm9ra3tCBCEyFDAOPaPQ4W/fgze4ziwkeA0FMaht3WN4eFiEV0NZ/RmaFJMpvNigIPwNMQQRBOe7T3TCaUkQju2ktLgf2Ewxntyd7UfDniGtES+75foHvoAQIZNGp5ERQxBSCBh9Lw1zQ8iiZxhkTBhtu2J2YXJyMofzH0XZ7OtR6a1QVVV1hjw8TXmzvBWEDA6JrcVj/Or42wxCFYUYgx4CwkPHct9SjRaZhL1DYYb3KEY02363e37bGerb7dNA2SVxvaDPZD0oWILwEzSKKIy3cGRkxH3ZC4YyQZzeSoP2K7wQIJhsPKneeG22sTt1UHbRMO+L7wlluojP3/Y4VxprIp78YUgjoJ2V8t6QzqX29vaLGpih6M4eY8DihjyUTEDeioX6moQgWgkzNLVbSVGklRQWFp5UnZuD9oZVDNodxSD/+yIIDcd6EwTlV+UHfZLaQcEShJ/AkFNowLkYs7tqNXakobq2/RAEhpaFEij1EASks8h1e+S5TIIXIKd+Gutb7DfyHnJSmPEghBLQMKO6uvo0ZbrI/e5TJuQzhjzkk4eAGAkkt8T17lIGd5IZqkXDuKf3qlLImypRa1O6CkLksE+CWOB8lyDUbcJt9CyKP+R16GEJwk/g4bLwHhvmHSQlJU2Ojo52YqhuzLtXYAOZirs9BIFKUYMUQdwXtijuR0XcyM7O7sWoZBAKM7IhmWOBWkxGRllQUPDBzs7OC5vVg0CaxlrzIIiAyGx1VFKGm2lpae7yfBBEPsRR5ycJiSe856PIlv1u95RXK0u5fRAQRowIwtkMO1iC8BM04BwarSbI6IUsMqQVVMXQVp7eV8gYIYQcVInUiUlThxhQiOGOvXsDYxogPr+O8ZhtuCmG4/Wo9L4edPKgoqKiYXZ29iKkVbyVk+R+sdi0QoyAEISsua+v7453RyX1HE+dFBPm7PuhNAxcBLEvbw8Za3am+a7yk2W/Oz0POyxB+AkacA6G4S4th3pYxkgHURWu/NwrUlNTNeEmj0bs/i5wxjxKoU+e1UnaAPZNcN/3+HgWfo0jFDielZW17zADI4gpKSn5WG9v7zmPKJJteYxDUDqElEUoFLCOOvVDQDjdkPCihyghqQJI76RI1CT4Dje8EMj/hu29gvpdgyCWqQNzHcgrjiSrICw2AoPMxmZdGU+D1hj+KAbjN0FgEApb3JexKGyANMZRDxteOuMNTU7i8z75Mf0QNFa9mauK/JRx/r5+X8ihEsO8NDQ05M71INwYamhouOHlQWW8uZQ9IJ2UAtcUG7UQOrn9EFNTUwWQ8GkUVUBGS/yFFA4ks0g+DEGQVVWEVRAWG0EDSYMg3FmLCgX4N+Y0br+AKsnCI7mLoOKVRRoDpG37dKQUC4qhDcWgDkuTpo5T/pVlZmb6vaAqhJNQVVX1CcjmjESRlAMksFZWVqYZnH9L3sxsRxESYU4++wKmICjvMoRwl/x3OEkasclGqagfYq/eWp2SG0IKGbnzdc9wCEL9EO41SNJye7aT0uIe1BhoIKkQhDtBBgOZx1im+PhNEHj9DNSCu8ahjBB7GOQ+O76qT/0eEEQTHtZJMZ19ZcTsfi/ZpnkHKJOPDA8Pu+qhsLCwizx+Z2Ji4i3+e943IQWRTvkDOsV7cHCwOTk52XRUyvYgh3hIoxzS8HmOh2O06kR0jZckdVjuK8zQNe5d+h64Ps3BvwfKDjssQfgBNQYaSPLCwoLrNfHei3jaaRqL340PMtBTnC5BSJVgeFIQOxIEZKDX0zditKYjUw0Woy1OT0/3a3KRhnArKys/PDAwcIprGwNV+y8tLX2nq6vrZYxVK0uNeRQLoikOMssmrwGT/6Ojo4NcrocyLXmqlLrJhriO7/E+0ZzvWrN+H+DXU7aCTqY+9JSot4LQ7Ey/p28fZliC8B96ga0rdzGgJQhiBgXhd+OjjWXOzMx4K4hZLqe3T+1GEIt8WjAmd7YlkrwYReFXrz/KoxBj/EmM1CgQDEB9D3pX6Fvd3d0tCnn0vITHacpmMJhs7hfQMIPrtkMI7pvQRRCQ12nKuZf+Dr18yG3nMm7g928kcA1NvnK2DFR+qyAsNkDDW26joNHADysKM/xufBhcBrLe7TfgmgvYyaCMxUnaEnj0RWR/KwRjhljJl+YO5HG9PS/XpqdBy8vLn+np6TnHZU2ajKGiokKvDvyB+lgo5yJkYF5kK3A/xflaqj5gBCErpi5aCJ3cfgjIMwsiPOYrQagegDy7+ztRFlMEZ9NvUF7nm0uQYWlLliD8x4bYVlCjFpzNPUESlUaXPj8/76oSlPQSYcwo/LDjArAiJRRDH2GGO5lKHZUkZ2DEe/JsehqUcz8F4Rj1IUNAUeh9EK+1t7ffUhr5WURNjHouzX20Hp4UREAfWhoeHm5NSUkxBKF8kK9E8lVDmk8LtHCOfp9YCMGbyLXoi9/9RB7wM3t+e/2/ryM0XGAJYn/Y0Cj200gU99OQNUFKjc2kYYDLEMaYpIlJ2AEQySyedczLq2tB1TQpApPgA3RsSUnJpd7e3vMe9aC81NTU/Aj18LqUitIU0uAwR/gYMtS9yGIm9w/oY88QRD+82U2ZTPnFvaiKHAirVoRqDtoFnKMQYwNBgB0VmQ+473e2CsJiM1Y8BiLQ8PxSDh5AEGk05g0Ghg0s4TV9WnhGrZ5rjHqPApKEzZv1LX1CcXFxNUTzSY96EDBGGemrXV1dd50k0ylKedUHYQxNhgt3aLJUQAmC+yxRhh5UTb+TpLQ0FMRJEaqTtC1ktORNFeJNJuLb/RKEEJaKYTMsQfgPzaZzPTsNWQuRJPLZk6T3QATBNUyjl8EJyPo5GaPZ2AWcu8rxExipk2LSUP1JPimI9PT0jMLCQj2x+Sj3NGkqCurhhwMDA2+hZNwH0BzD1aIupvx4aA11ZgaaIASu2wVBuIvRkI107n2Mcvl0L/KWyPEuQUBsK2z73QfB+SIG910g4Q5LEH4AA5YFazada7zE5Vqqvi4jI8OvyUnIc73m3zVmjH0dNTC+l8aMw5zlPM/xkv3xbPvUoVdWVnZ8Zmbm41NTU3kqnuzAeQjsH3t6ejasFqU8wRGjlN9VECIItgNOEKgZTblu46thTQgiaXJystaX/g4pCPKa5N3HS5Le0r1fBREDQWxQEE6bCDtYgvADNA5hBqN2V1Gi0ebReJ+prq5+3Bf5uxmQgQjCHQXAG6+oT4H7+NShpgaKUWutAu81I6Vqdp0GLPVAKPFka2vrBfJg0rj/cm1t7auQwwb1IEhBkKSX3Jh7yTamp6czIIiAr6ykR9q5bgf3Mi5bxj4+Pl4Kaew6YYoyFUNcJWTXSTF5FUHs2Om7E8iHxklFEE7KPeIizRKExT2oMdDIpvDO5gEp2owMJOX69esf5Ptn6urqHsXg9zQlmGul0PhdgsCwlzGMCV+9HVlSi93QL0JaLNu7duZVVVU9iNF9WMOIauecI+Pqwfv+fX9/vzsPwRsLCwsqvyEOnTM3N5fEeQEb5vSAPE2Tjx4UgztCAzmloNTqFD85SfeBvMURMj1EeFS/SUGsiuCczT1DBAE5aATLu54NnM2wgiUIP0Gjm4QD3A5EtQ+MJqmpqemDtNvPZ2Vl7WkOAoSQDBm4ygMPvkBjnpBUcZJ8wYZj7zm7nScFkc9sjO255uZms1qUQP6nKyoqXu7u7n53O2MieSE1NXVCZCJgxFo4RlOuA/4wFfU6UFBQ0OG5l4gU8jzO/bdcTZrjoiGHMurwEUKUAqWJxB2scf5+FYSGTp2Ue/XM9r6HTg8jLEH4CbzYGLaw4SlLNcKxsbHcvr6+C8XFxSd28nDeUKMTQXgrCK6tadNaws7nhieS4uP2WXDZZYx+RwVSX1//zODg4IcwQnNvGWFRUVEb5fvK0NCQO3qwGVI2hFJjGKqTYu6X6U94tRtQEYM5OTnN1JHx0tw7kfxWUb1bdsASmiWVlZU9Rth3HiLTtHhnj8mjZp3uV0HEkQcnxaQFZG7FYYQlCD9BSDGsPgJncwMWFxcziJGfLS0t9fm1cRhmEud5hxh6tmPc14YnIgHjGOyQDAKCWcKDjmBc277AB+WQyX0+0NbWdk7bIpjMzMxhCOLbXV1d13VBc+AWYNeyyu8tGMhrGkYbcIKgrke5Vxd1ZPKDfcehDCq3I4js7GzNIn2G8Oic6kJQ2ciryHKc7/sKByh7PB9xhdnm/xq/lc+dyUcJliD8BA10GGPU8vb3NTb25fX29n40Pz//HMf4NKGHRpZIw9/QB0Gbm9zJSL0hr4hBvFpSUvJqeXn5rWPHjn0fO3iZNHeq8makpKRoyFArY2ldRd1zBeVzY2Rk5IXR0VH33RRbgbwtY3BSECZ/nK9Rk/TtjHY/mJqa0uv+RBDGCGWLek6Ee923rJ5CJurgHPvPUw7vUaGlurq6dyDMK06Sv1CIofrS/3sJUVErkONeQsEjA0sQfkKdZzSMEby0K1fZNv9RAjGEGTU06DOoiGrS/0njbgFnfyKG6oYkGKts3meCEFpbW28SLvwO6uW3kOD/Y2Nj48u6iLP7PoyPj49g4FeI17vlnZHlTaiKr3R2dt5xDtkWGOkKedQTnW4IQ1JaQkJCMEKMaYqhh8XcYWVCoCQIrpS0DaM0qB+9Q+MnhoeHT4pIxM+5ubnjjz766H8n/X9BLblvRvcHkILe8D3LdZf1sxFSzfB9hHTbSWnxT5Dh4jQGiI37PW0DY1HnovlOg04kBn4Yo3tGU5hN4s5IgCDcRVlpdCsY+dReCELo6OhovHnz5uvNzc3XUDI7vh8UI5trb2//WkVFxX+4ePHif0Dx/M+c9/W5ubld3+tBtlYot0IM12ghRhFEwBWEQF2MQl6DGKfZ5t56jX+ld0elyAIFcaq7u/spVIepS0hkobq6+lVI5gtXr159hTq57+3kewF1ppGbb547d+5FFMm7/P8yv/M3rYKwuA+a5QdBaBKPiXHVeJG9RkngvWIxtkdo2B/imF0fu+b8eAzMfQ6D/yu0xX2969IXoHS63n777b999913/8vly5df2Klj0htSEJDECPn0LByjxWvTsdGAz4UQRJbUY7uHILDHOO5f5plKDjlHV1VVnWT/Q6ioSurSHAdhdEEk/0g53ani+8Xt27dfgkT/r/T09P+V+vo9tt9wdoUdLEHsA3gjzfJTjG8khIybxmjIQsDAkzmmhrj+0ezsbHetyc3gPMWzWl/CSbnXB4HB+f1+jb0Cg9pxzYnNkIIgf+qDcEMYjCaD8geFILj2JOTbx/2Mp+b+cdSv1rwwCgLlkkio9GkU0fOkm34fyGOBer+LEb+ncEppgQDqZBJSeBtS/WZLS8tNfrcdR4qOMixB7APEub0Y8nVIQvMh1vEo45DB3by8PMWo5hjkZyX/PkzjrTYJW4BraOLNhs5MHKIM0KfnMA4C5M08ik7WDUGIFDFMve08WCGGppEPcH1jjCiIKAy1CMVi+jyo33JI4DHCi2rlRWRdUlLSBEm8xe/ULcWj4yz2BksQ+4A6z2h8r505c+bPHnrooa81NDT818zMzD+qqan5Hg3TNOSRkZFMQo3n8GSn8XZbzjSETLT4zH0EAQ61Z8Krq5PSNTzqI4PtgHdSCpDPLHWkhXmN0kFBSMEVKqTR4ryQwRPkx0y/FjmQvpifn/8OocW3pqengx6qhSssQewTTU1N71+7du0/tbW1/cbVq1f/D7ZfwN6/keK8+EV9VxiO3p/xBARyQeGE0r3B8ZpMYAhC3k/gMC25dqh7xmdnZycxRKNylFWMOGgvssX4ZxEt6qR0FQsKQi8NziwvLz9FXj5DKNGgfeTpgcrKymbI5Gp/f3+7VQ/+wxLEPiEjlpJA3o7p/8DAQO/g4OA7RUVF72VkZBgFoOFLpO/jbF9CWdwnwWnIGxZWFUja0+jFQYByaTLWJEZrtlUGPikYbcCnW6MYVgkztMyd21dCUkxCQkJtVlbWY11dXQ9BGGYIKTExcY6Q48ejo6NX9JuYgy38giWIIGBsbKyfcOKV0tLSG9qWA4MgavByDxYXF9dsY0AbCAJPfKjVg4A6WsUYJ72LA0Eko56C0lGJgpiFYKe8RJiWh7qwuLj4NORh3nImssrJyenk2B/09PQEbOQiUmEJIgiAIEZ6e3u/l56efp3GbHrdMaYY0utRFs/TgM0DRB5gVPeRgbyx8/XQgjKtQQ7j3gSBwSZDGkHph4BotViu9/MfcaiEJ5ubm0UQRsbk5uZOUMeXR0ZGbu93zoOFJYigQAbf19enMft36+rqbiCDTTqNuYpQ5On8/HzNsnTrXoamf/ru8Y5cYkOn5WEE2dby73rs2x3qhCBSMeKgKAiuvSyC8AppVKfpfJLYZ9IKCgpuk/4KBOG+ts/Cf1iCCBLwaAs03Ms02FfxqKYjb3JyMpFY+Swx86PEyO5brzSODjFs6HPAW8Z5k0gwofvEA/IpaAozSj5Vaz+mahuCS9B+DFOPdLt5EhGSNM3HnXnpKIigDHVSJ3r+Q/cziku8Sthm9ilbycnJ02lpaTep49enp6e3fZ+phe+4R8UWQYEm96AW0mdmZh7nY2b8QQSJhB7RhBnDAwMDjY560JJvH6FhP+pREHl5eT2c/4J6703CPiCjFmT9ehybT6qMPyMjI4t8FEJi5Zqnwf8a/tfxOcb3evJQyaeMY4ozMzPzyHcW54oAzNqbXCOdfWeQ8g9TPhNWcHw/RnyZsrWbmwcQGH+GOiSHhobOLS0tGaKScpCSkEqrra19m6x9u7W19U32u6rGwn8c+jj3qKO+vv4cRvTb7e3tn8Vo0rBTPY48dOrUqb+8efPm/4MUNsOhly5d+n9+9KMf/VsRhBr8sWPH3sQ7/lJ3d3eruZCPQILL48uGUzDoXIw4m20NB2Zh04UYlFaNSuIjA9Or6/Vkorbj9d2Txn9N+9bw4Ar/l8j3Mp8lfSfNfOecOAisqrOz8wNjY2MmjqqqqroN2f3xnTt3/o59M9jpohSS9u0XRUVFZZDAv3///ff/OQohzkOm5EPkMfnggw/+QU9PzxchiNtmh8W+YQkiyMBIMzD2ZzH2/3Dr1q3HlKaGTWN+BSP7/du3b7/Kvpmnnnrqf3/rrbf+oxyfGjzE8h7H/WZjY+OOjyc7oYDef5HJ/xwMpTQ2NlYTlqRYCpDleXxy5+fn8yCjYgw5A8P1PDXqz++/oUMVItJDa3oOw2zj4ScaGhpeg5R+yH1H+Uxxv2EMemhqamqMfMzpYw7eIyCI0rq6un939erVf+lNEOokraioeB+V8z9fv35d7w7d07Rxi+1hQ4wgQ40Vrz1DqPHg8PDwMb6bOsdwspDj0RjWOxjORGVl5YXx8fEnMB7TOYn8H4NcXkdOd0AYxigxiCj1BSASNJSYRihQVl5efr60tPRZCOITCwsLn+X4T6FUPsTnif7+/od7e3tPDQ4O1kEOpdwnjftJHciy/HUOnnPNh/JoDofSDfFx/cTR0dESyvKoOmTJ09NEJWcVvlBeEVgy5KG1Mt0OWQjGhFm7QSEReIoyPYQoMQ+26d5cewiCeJFyfpdyDjiHWwQAliBCAMhgCSNOo4Hn4sErZA/wRpK8b25u7p3Jyck+jL0BT/uIjFjnQABT7NNMwFsYoV6Kk1JcXFyBxL4ImXyasOWzGNqn2PVRGWJfX9/DkIKIIAtFkgrR6O3jWoQmTsZEHkynXrAhg+V+8dw/lXykU54c/hezXUUejqNuHob4nqK8T0JulXh9TaxSfcyzf8cZj5BsKWGSCPA45XYJhrq9w/c/Ixy7LUI2iRYBgSWIEEANH485g1Fk4f0+4OV1E0pKShZp9N0YSQKHPYT3LdQOhMI6klqLpIxiAA3E9s9CCh/ivA9xjeebmpouEPufwFjKRAozMzNacOaexYQYHkP1YPO2SErERz6LyG8VZHYMb3+CMhejKMogwmrIr5ryZZGmd1noSdYNnYxcMwqVcJrQ4rNcp9BzD+pnjbr5EeTwN5p/YhItAgZLECECKmEMg89FJXwAJ5cugoAQtJJ1JuntePtBjOMcBmSe+oRQogkbojCeQo756ebm5p9ra2vTezOPoxgysZ9DM09iMyHsAh2s0CSWchRK9VCmCxDGM9nZ2Xo0PhW1tEbxV6kjI3kUghBa5Gjxna6uro9Thym6p+qQcyYg2RdbW1tfhSAP9cNtRxGWIEIIQoIHqqurJfeP4VGT1cBp04kQxDSecIrtOrxrvRo/x8TiLQtQBvK2xycmJlI5Vsutu2shHhbskSBcqBwiCsoaB+ElEorkE4rUE4Y8WlBQ8BAhSBVhmUZZFiGOY6R/EjJ5mHpwF9ah7rqo16+ipq5z3OGqmDCAJYgQgoa9kJSUNJOSklKP96zGMEQEcTT8BLxmHqRRhXzO9zR+lIZIIgl1cehIYTO8ScLfvEIS8SitrOHh4TL+l3PN0vT09HLI4jjq6lJPT89j1Fuu9/VRFXeo139AiWz5gh8LiyMFQob8S5cu/Q6erw8ZrZa+zv8VDEDv+tScA71Cb8NHx0TaR+WOiYlZVb2grhb0X/XlXSf8X3300Ue/VldXd4ZtiyDATrUOMfCSizTsNoiii/8mjRA7Bi8Yj5qwis6BVII6c1Uv1JkW9NVELmfvPYgoII9J6s2OXAQJliBCiMLCwpKTJ08+T2N/fGxsrCQUw47hDOpPBJJByObXG9Utdof1WCFARkZGplZcLi8vf35hYeGnW1panhoaGtrwyLcHHlXhja3SIhWeunD+RyUlJa1AvDMJCQkzKIkFKTRzgEVAYAkiiKARR2l4rqam5rHExMR/c/fu3c8NDAyc1INNO3XkWULYHt51o++zs7MZi4uLdXl5efX5+fnzEMQYJDxP/W5fwRY+wxJEkKCHphoaGh5GOfwMjfbTbW1tT42Pj2cjid2pyTvBksTW2FwvqIZYSCJrbm4ujyqvLisrK8/JyYkhbRjiOLSrgh8VWIIIMGjAUUVFRWWQwzPExj/V29v7saampkdpsHtaZWmzIVjC+Cd46sJDtPqvqeWDg4PlELAeT88sKChQ256BOKbXbGeP37AEEUAQByeUlpbWoBo+Njw8/K8bGxufnpiYKPN3dMKbFKxi9glREEIGSq0sJiamoby8XK/fGyTkmOU3sLMs/YAliABBj12fOHHiydzc3J/v6+v7dFdX12kaZuLq3l6tuQFWNewdIlJCukSIIpv/FcXFxWXZ2dnTKAz1TdiQY4+wBBEAIGeLCSmei4uL+3RHR8fznZ2d9ZoS7ez2G5Yg/If6JiYnJ3NmZmZKCgsL0/Lz8/X2sim2NaXdyjEfYQliH4AQ4kQOtbW1z9PwfqWlpeUZTZV2dlscAiwuLqbwm9Skp6fnFRUVxUDcA8vLywsQiH2Zjg+wBOEn4gENrqKysvJfd3d3/2p/f//p3YYvLQ4GcEHc9PS0nuGoLgVJSUn94+Pjg7bzcndYgvAD6m+oqak5D0H8cmtr60/39vZWE+/q/ZrOERaHDaiGBEIODTPniyMyMzPnII0htm3n5Q6wBLFH0LCyqqurz/P/M1evXv28Z4EXi8MPCDx6bm4ubX5+Xk+Iatm+Qb5PEobY2ZfbwBLEHiByQDk8kpiY+Gu3b9/+JB4ox6qGowWRhPol+BTn5uYWZWVlDUMSo3aEY2tYgvAR2dnZZsp0fHy8OiM/hHLIs+RwNLG2tqb5Eql88iGIEkLFZcKPTqsk7oclCB9AI8rWYrEoh0+jHD4+NjaW4+yyOKIQuWv2ZX9/v57jSCLkmIQwhhAS884hFsASxC7Qey0UViQkJPzi+++//6mZmRnzFmmLsEEUarA8NTW1Micn59bU1NSw7bj8J1iC2AGePgfI4dcJKz48MTGR5eyyCCNoXUyUQ1pxcXEGoeQ46LHzJO7BEsQ2IJxIJKx4OCUl5efv3r37MbxMrrPLIgwBHySgDgshiRV+89HJyckhiMP/efJhAksQW0DkUF5e3pCbm/uzV65c+SUajt5n6ey1CEfw+0ZBElr2L6+wsFBvH2udm5ubinSSsASxCTGgoKCgtKSk5Lebmpp+GrlpRysiBGtrazGLi4vJfM0pLS1N0wuNxsbGhu7tjUxYgtgEiKGypqbmZzo7O3+mr6/PvMTGInKg/oj5+fk0nEIubWF0aWmpFwU57eyOOFiC8II6Jevq6p4bHh7+dcjhOHLT1k8EQiSxsLCQmpWVFZOXlzeLimhbXl7e8CrASIE1AAfqdzh+/PjT0dHRn25pablI/Ol5RX5AERUVpdfK3fch3bzvAdiVxjeB+lndXF/6qL6cQwL+XDwkETcxMVGUm5urttE8Ozs7gcOIuOFPu+AAoLFFE1acKi4u/g3I4acHBgaKg9E3FR8fv5iTkzNYVlb2thodZDBBshp6IvGvXrPXQGhzXv0e986wUJ1B3K+npaXd4GcaJUlTorWuZ+bi4mJld3f3xf7+/nLSgtGW9QLlrurq6hcHBwf/mLZx00mPGFgFAWgEZVVVVZ/u7e39BAZaQ+Nz9gQGNOwHkpOTp8rLyxtLS0u/g1z9altb2zdocK9yvzcIaa5ASHeRtKN8oiELPVCkF/xGLIHHxMSsIe/7a2trX09JSfk7fpu/b29v/x719hrh3+Xp6elr1Gl3QUHBGsemExJkKDRwTg8UoiBtrZpdQvvo4x49KImI6o+IeILAM6XTCB8fGhr6l11dXSdoZAGX+HptHArlCg3+y5DCn+L1bk9OTk5ABGuQwLriWxr8BMqhLSEhoRmFobeBN9Aw97TQbbhAhCqlVVdX9w1k/v8NMbwJifZjoAuqM36jVULAmampqQEM9mpFRcUoKqyGtKCQBNeMSwWFhYXT5KORUCNiJlFFNEHQqKJOnDjxAeT+z2K4H8BrB6XfgevPQRBfoKF/Be/XtVUDE1EsLS0tQhSj6enpK5BJHvnR26417BZRIKxYOnny5DfgAxHqe5DArOrH2e1C9SiPzs84BanqrelVEGvAn5MRQUihoFamIK9WfqNxEZWzO6wR0R1i2GBhRkbGE8j8J/HWaU5yQIE8nsXD3aBRvdnT09PuJG8L8rEIidzCSL5DuNHvJEcMYmNj9YLjXsKG1wgn3lF9OLu2BfXVgWd/CWLtYzPgk1bETZpmPzg4+FhJScnH+V0iZlZtxBIEP3I2Xv0JYsyLNLCyYD2fk52d3U+D/+7IyEibk7QrCHf6aYxvQS6apBNRs7SSk5PnkPJ3CR+aFIY5yTtCSoL6ak9KShrSG9Kd5EAjCsI6NTAw8NPkr1brkTrpYY2IJQiMtoR29XNI2AtBiFtdEF7onZHtkqVOkk8gnp6kDc4iaSNq3UQIYpZPF+XfU30hNBao65vFxcVtwaoztZPx8fFSnMtHysvL653ksEZEEkR+fj5OoPBCb2/vw8F+QhOpvLy0tDShBuwk+QQao8b+lzk/op4FUH1RbpHqniYmcfwyVdaTmZnZHxUVFTRSRXFmEc58ECJ6TGuTOslhi4gjCCRobGlp6Ska03N4qaAv/EJjVYigPrY9hQrqQHW+RhTU90dVxUESe+5Ap8o0PyKobZo2k4TqPMd9LtCO6tWenF1hiYgjiJycnPz09PTH+JGfRPYHfRgR9ZCUkJBQgGze070ILxLwiinLy8sREet6QHkTKXdufHz8nkaUsNM4CKJqbGysLNgkQR7jBwcHHykoKPhwuKuIiCIIYlQ9xv3gwsLCg6Ojo/moCGdP8IDHSccbNtCQfA5lkpKSkiGyKsKSDCcpYoCETx0ZGTmWlpZW7CT5BNUZhlvBuUXBJggQRXiqeRePEq6Wh3OHZUQRBMohC0/+RH9//3kaUUikISole2pq6mxubm41ROFTfRcWFlZgIM9yXgGbERVqQN7xPT09dfxOZ/HQPpGEZD51Vjc7O1sGqSbw2zp7ggNdH3JIg4wayOOF7OzssJ0aHzETpfAwSSUlJXXI119sbW09jXoISdm5XzyNNr2srGwYCdw/MTEx4uzaEpKsNTU1z3Z2dv6LgYGBCmLySJzMFgVB6p2nMxhhszognfQtUVVVdTwvL+/n8eqPa2o0SSEhVfg+Nisra50QsoWQo8tJDitETOPDw2CjZZ9APXx4fHw8ZKtS423MSkU0ptzi4uJUPOMEjXiMtPvG6/VMyIkTJ34B5fBLEMRJnefsijRo4ZZ0yDKTkDCe0GGIOpty9rnAMBPq6+sfgkh+uq+v7xOQSWko60z3gsCT+d1aIP6WvY5UHQVEDEHglR+ioX0OL3OcHzKkhicVACnppb4FkEQi3i4ZD5mMARD1pGexXVpRUXEWEntuaGjoF+/cufMo54R17/hOkIQn1EiBFNS5W1BaWpqQkZERlwL4n52Tk6O1I2srKysfJ+kTKK0PQajHl5aWEp1LhAT8RtHKJwQxCFf1QRKDKNOwGpaOiPiWRpV57ty5z12/fv3/Ozk5mccP6+wJLQiVl2nQM8jSPj6dRD3DKIsFGnbW9PR0BTK1CqPIZDtSlcMGqMsmLi5OE6DmCQ/vUGd3CNOW+f1SZmdnC6mvY9RbhohB3jzYfQ9bQb8p5H6H/H3x2rVrf+zr7M+jgoggCGT7o3jpX7l8+fLnD8PDT/Hx8Wtq9HyWaGBr6lgjX4lzc3MRqxp2A0piAbWlB7Pgh7VE1RehWIKz+8BAftS/NXvmzJmvQ1j/qb29vdHZFRYI+xBDsrS2tvZ55N+Hh4eHK1CABz5yQx6iFObgBZPwgMk0dsXZETWitFdQP7GoK4UdqdRbIvV3aMiUvMVlZmZO8Wkib3o7V9j0RYR9oyTOz0B6nunu7m5AhkbiiIBF8KGFZYpQEg+jcsLqtYxhTRAxID8/vwoPXU1smHlQfQ8W4Q/UaeH4+PjFjIyMQicpLBDWBJGdnZ3L5wzsXg45WPVgETTMzc2ljI2NVaMgKrVKmZN85BHWBAGb66U3D6EeNCPRwiJo0AjK7OxselxcXH1eXl6Jk3zkEbYEEQVg86Lu7u7HkH/2pbsWQYeGWyGJs4S1JzT920k+0ghbgiC0yElNTa3UvIeVyFlj1OIAsbi4mNTT03M+ISHhZGJiYlDWNw01wpYgsrKyCmNiYqrX1tbspCOLkABHFN3f31+6vLysfohMJ/lIIywJQo/foiAqYfR6fqyQTr+1sKDNZeXk5JRpFM1JOrIIS4KIBsnJyWfa29sfXVhYsARhEUpoElxuRkZGbXp6+pFXEWFJEJBDyurqahFyryTMnp2xOAIYGxurwUc9lpKScuRXmwpLgtBstrW1tVRn08IipOjr6yvo7u6+RDs88gvJhB1BJALNZkM5SN5F5MKvFgcLnFP08vJySlJSUo7ao5N8JBF2BKHwAuau4AcKqymvFkcLOKh4uCGf9niklWzYEURcXFxCfHy8FhTd06KnFhaBxMrKSiJtsQiCONL9EGFHEJCDFg8p18NZTpKFRchBmBG7vr5ekJKScqRn8YYdQfCDZKAeSqempiLurdgWhwdaFWx2drYuIyOjTNP+neQjh7AiCM1/IO7LnJ6ezrWrM1kcJDT/ZmBg4FhCQkKx2qWTfOQQVgRBeCGkLS4upiDxnFQLi9CDMDdqZGSkBG7ItgrikCA2NjYuJiYm0T5/YXEYoDBjfX09ERVxZIc6w4ogCC+SIQm9OOXAFzO1sEA4aJnthKSkpCPbHxZWBJGenp6NgijRc/lOkoXFgQIFgYBIOLKPfoebgkgjvMhbXV2NqDdiWxxOQA5ao59mmRj0t8gHC2FFEHFxcUmQQ8ayXULe4hDACTHiCHsTjmpHZVgZEuFFwsrKShKsbQnC4sAhBaFPdHR0zFEd6gwrQ+I3iBNB6Ou9FAsLi/0gHBVEMgrCLnFvcViAiDiAl4YGCGFDEIrxIIi06enprKWlJasgLA4cCi9WV1fV96BQ40iSRNisl6AY7+LFi7/Z2Nj4P83OzmbbfgiLgwZNcvXs2bNfnpqa+pPbt2+/7SQfKYQNQQj8GM8kJyd/CDGR5PQam/I5381X57M5bUt4HbMBAfYG+7qWD3nx9fq+HrdtfYGd9hlsV6cHhO3ysm1dbFHfnm033XMM//BTa9f6+vp+3NXV1WJ2HjEcph9r38jMzMzOyckp3tQI3e+e9E37Q4otGpjf8ONaAbv3NvCpXkNR/5668fVeOx2313r2unf0wsLC1NDQUN/i4mLYvPHbwsLCwsLCwmJnBEXqmbmlKSlpGRkZuTExMbHR0dGxHgmH5JqZnp6emJmZmUR2LZoTLCwsfIbsKzU1NT0tLS2br2maqYmdmccLVlZWFpaXlxfm5+enZGd8Jknz+92TASOI9PT0DIcU8sl8Ht8rIIZqdqUQksV45iZQkFG2e2ZnZzvI/ACfUTAEccxrv4WFxdaQjWVlZeVlZ2dXQA5690Yltl+0urqaxn91zK/HxcXNYGOTfPqWlpZaJiYmWsfHx/umpqbGccrTzqV8xr4JggzFFRYWlpWXl18kUx/A4Bv0ZiEynInRp/Bf5GDuAzGscfgSrDcL600kJCSMQiTNFPDVrq6ut/v7+3vMRS0sLFzIxnJycvJra2s/hA09icGfwLZyIAA9d5TEJ450M6yPDa5gW7Kx+fj4+AlOHefc9zn21c7OzrfkjPm+ZC7sA/wmCIUMxcXF8EL5Yxj6gzDU+YGBgQcHBwdzMHjnqJ2hwpD5Qa5xJSkp6S7nXe/p6XkTsmh1DvELXDOPCkomixvmQijPztc9gx/Ar57sQMGf6wUoD1tdY8/1uJ+69xW7lXdzHry3N+/zhvc+X+sUp7iKo5zHIIedJL+Qm5ubX1FR8SCq/MnJyclHe3t7HxweHt7TQrhFRUV9JSUlV5OTk2+Sp7e7u7vf6+vr63J27wi/fjRulFxQUFBOxj8yNjb2UzDTWQjCZNqfNqkJJfoPQ15DjXyBzL/MNRthxmVzgI+AZJI4vwLiegTmLOB33XZlqe0axBYNYMsCbddQtkt3sPfK8QG73FPw+74+XNtgu/r0wp7a2m7X2yVfW+1zr7fp2tulG3in7XTPLfat0HyHh4aGrra2tt7c6dytgPOMyc/PL66srHwCsvnk9evXP4FqSOIy9+XRF1AMPXe+cOLEie9jvl9va2t7GfIa5Jo7Dr/u+WYywtLS0joy/9vt7e3Pw2pF8/PzCiOcI/yHZBHE011WVvYS8dI/XLt27Qd7qVgKfwH18HMomacJdQogHvV77LWM5n6e+266/+a8bLvND7J533bY7Thfr2PhOzxtwvznJ/ZuI760lw2/yabfWt/NNlJ/gbb8Zbz+F3B4TUrzFdXV1Sfw+r8MwTxD6N1Ae87Y2BT9A0pkEvttzsvL+x5q/8sQxc0V4Oy+D3syHgocW1dXdw7Z82tNTU0/xQ2KnF0Bg5iOimmHOV+ZnZ396p07d368G8t58Nhjj/0M5/yrlpaWi5CWXTTG4qCx/vDDD3+N0PmPr169+rKTtitwdI9iY5+CWH6CkLuOsCCgSyjKERN2tENe30BFfB0bu4yD39LD+/zUI944ury8vBbj/dTNmzd/dWRkpMDZFWhEKVyB1PJhOb2+rIdC9Dv7dgSkcmFiYuJZzi/agRQtLEICTGaNNtxDG24aHh5WZ/yunXN49yo+P9fR0fFpCKJ+aWkp4AswYxtxKPRMslNIOC4B0YbNTDi7N8DnB5rS0tLSKyoqfoJMfxa5k+skBwtRSKui7u7uDxHKfExyy0nfFiIw1IfWg0gIRLhjYREI0BY1B0jvaNlVrUMmhbT1n6btf5Cwonp5eTlo73YRSXCPKhz9B6uqqj5ZWFhY4uzaAJ8IQuRQW1t7AaV/CclTzcWdPcGDCkAIU9rX1/fTsNwzes7C2bUlNvUVWFgcCkAOLpykLaGVbZH9DXjyj3Z1dZ3W0KWzK2jgHvEolRPc82MQRD1K577Fnn0iiJycnMKUlJRPYKyPENurJ9XZE1xIXrW0tKiyLhIvnditki0sDht8bbOE7tVZWVlP44DPzs7OhmyR27m5uTTs+jQO+CIkUe4ku9iVICCGlNzc3JrOzs7nyPyBvDF7YmLiRHZ29gcoxLbjv54fwtcfxMIiRPCpXRYUFJwfHh5+XmuZOEkhg0gCG3sGBXNek7KcZINdCYK4qIQQ40EynnsQsT1qJRrJVTszM/M4DBusjlELiwOD+h6wyxPd3d2ahRzy5RIXFhZSsLFz5OHk5lB+R4IQ6+Xn5x+TcZLxNCc55IDhUmG4alREtV6+6SRvgIehPf8tLA4DcHA7tke1V/U9YKQ12Fn6QThhDa6Mj49nE9JXQVaVTrLBjgSheQ9JSUl1ra2tD2OkB/o6u+Xl5bTk5OQ6PaziJFlYHHkkJiYmZWRknIEc9GCjT32CwQA8tQ5JFaIg6slPppO8c4ZSUlJS+ZczPT2tMdN7iQeElZUVPVtRrEdcnaQNEBM7Xy0sDg12a5ciCGzr5NDQUM1BDsRJ6Wj2MZqgCpHuioEdCQJvnU/mszHOoI3H+or5+flEGK4S0spxkrYEBbXDnRaHBbs6La2Zgjovn5ycTHeSDgSYTTQkVYaNnYS03FGUbQlCvZla1wGCONCMeyCCGBkZaSDk2XGSllUSFkcJhM1ZtO3sUMx72A163gOiqvSJIJAa4ohkmOVQvEp/cXHRzPxC/oR8GMjCwk/IX+3osGJiYtTpfmB9D5shJaE86WlSbW+bMU1dhiSSFfuzeeBeWZEDeYmnvg883LGw2Cu2IgoZocxszVlQ6ZAgBmGQqAEKbWxLECqQCMJREIeiAGRpx/4F5zdY2+K3sLA4dIAfYvloevNhcXp6A5gUhNa43FlBCBhaPOx2mB6b3tHyKdwqpLZqCcLisIG2eZ9zUwyPHerRhUOjiqVmyFM8ysYngjCvL3c2DzX0AwD7GKfFocJO7RJDlIJIwihDPntyB6h3IU5/zIZJOjoQWW1JWFSyJQeLIwXIIQYfLHI4THYoXWCgjW0z5jDfOsfZeQUWFhECmbz+70oQRxGeQllYHBJ4HOyRdbJhRRCChwEtLCz2j7AjCAsLi8Bh1z4Ifb2XYmFhsUccRfvZoMCtgrCwCDIcR3sksRtBHLqC+dARafsgLI4EjkKn+o4hhvd/CwuLyMOOCuIokkNMTIydMGVxaLCbDR1CFbEhv+GmIJRdjT07mxYWFvvBUeuDMATgfN8SRyGus7AQjkJb3Y0gVAgZ5FFSERYWFgHCrgRhYWEROZAg8FbpO/ZBCM7mocF2smy7dAsLC//hi4I4bCGG3uJtycDCIgSwIYaFxQHCUemHyQGvkaVVz/oqR40gDl3IY2ERboAbVj3dC1ZBWFiEAEcsLHYd8Y4E4WERCwsL/3DU+ss22/xRVBAqgyUuC4sQ4MgRBNxgn7WwCAscZkfnyZsvBCGJZIcVLSz8wGEmge3gnWfbSWlhYbEtLEFYWAQfcspHst/MEoSFRRARFRWlPrNtycEhjkNLHtsShGd4hvzb/gcLCz8hAgBHtmPdVwVhScLCIkIgRnO+2hDDwsJie1iCsLAIIojUd+t/ONTYlSA8fREWFhb+4SgQgTe8bd4qCAuLA8ZhIpDo6GjlRVkyedqRII6iejhMlW1hAXZrj4euvWJCWhNid4IQjiJJWFgcNhw1x+WxextiWFgEGUeIHO7Lpy8EcdgUxJFiYovIxk7kcBSIY1uCsKGFhYXFrp2UkNxRIwqrMCwsAoSj2Adh+00sjgyOQhixBVxRcCQJIgY43y0sLIKIXQniMPVFOOGOsmT7RyyOFLZSEkdBXexGENYQLSwiGNsShPXSFhYWtsPPwuKAcdhCDW9xsCNB6EDB2bSwsIgQeOzeKggLC4ttceQIwioaC4vggWhng33ZTkoLC4ttYUMMCwuLDfAWB7sRhFURFhZBQjhMlLKwsAgyDnM4bwnCwsJiW/hCEDbMsLCIIEjRCPq+LUE4x1hysLCIHNxn77sqiM3joocdcNpRfP7ewuJQwvZBWFhYbIsdCeJekGHDDAuLCMIGe9+xD8L5epRgwwsLiwBitxDjyCiIozDpxMLiqMGXPggbYlhYRChsJ6WFRWhwJBTu5ohh107KozbMaWFhsW+4Nn8UFYQlLAuLEGFXgtgsOSwsLAKKQ21fu4YYztdDDzuKYWEReFgFYWFh4WKzvR/FPggLi7DCYXbCliAsLIKIw2z8vuAoEoTta7A4UjjKJLEtQTiFil5fX7cqw8IiQrGj8cMRsRCEfdW+hcX+INV7n4qQExaczUOJHRUEsARhYbEPYENr2NAqX49EaExeN+RzNwURvba2dqQ7WSwsDhLYkGzuyPab7da/IHI4UgTBb2EJzeJI4TATyI4hBv9iURC7kYiFhUWYYjfjX4uOjl5zvltYWAQYhz382JYglHGwxNeVeykWFhaBhAzM+/9hxG4EsRITE2MJwsJin5AxOV8341CRw+Z87kgQa2trS1FRUctO0oHD6RFeEZwkC4sjC+xrlc8CTvjQhvE79kFgjCKHQ0MQ5Ecdp7ZPxCIsIEe3uro6j+M7NA4vOjqaLK0uibzMtkndAnLVHLQIuy06SQeO2NjYJbJlMm5hcZTgjApuAIYoglh0BgIORaihvMBbCyIvs21St4BoZHl5eYYTFpykA0V8fPxKbm5uH9macZIsLI4EtiIHAQesWZb6HJp+COWFbK0ob9reKcRYX1xcnIYg5vT9XtLBAYJYysjIGIS0ppwkC4sjDTnhpaWlGfjjsKjidVS6VM3yrgQhiTE/Pz8OQcggD5wgEhISFlNTU7shrUknycLiyGNmZmY0MTFxTIbpJB0YyMcCn1Gc8ILIS2nbEgQHLY+OjvaT8TEnRjpQJCUlzUESTVNTU0NOkoXFkcf09PRYSkpKc05Ozug2kUhIoHvn5+cP4IQb5+bmpp3kHUOMBzhwhpCkq7i4uCsuLs5JPRhw/0nUw92JiYlhJ8nC4shjdnZ2Ghu7BkE0HWSooXunp6f3kpcm7GzeSd6ZIBYAEuhueXn5VTy4e1IoIWZT/0NaWlo/5NA6Pj4+6uyysDgSoA1vKw2k1GnT12jfrRjngUkI3Rv10INCv4PN+6YghP7+/jsxMTGvUoBxJynkyMvLG8jIyLhBRQ44SRYWRwW7Gn1vb28ToXwL8f8sXBLy/j7xlwQAKr1rcHCwRaTl7NqdIEZGRgbEcEig1uTkZD2bEVKQ+dXCwsJbKysrb8JuE06yhUXYQB57fn7+/ePHj/8AQw35MD73nK2trX1nbW3t5uTk5JiTbLArQSyB4eHhjuzs7B8VFBR0OMkhgaagcs8+pM+7PT09787Nzc06u7bDwfXyWFhsDU+b3LFtoiKu4YBfpq1L3odURSQkJMxlZWV9f2Bg4D2IakNXwq4EIaAgRiCJF4uLi9+lENM7hFQBg+6Rnp4+WV5e/sbs7OybVKCv5GRJwuKwYdc2ibTvxcbeIJxuDWV/H+SwgBNuQTm81tXV1ewku/CJIBZBd3f3ndXV1b8/c+bMdyGJ3Tz5vhEfH7+Qn5/fDFG80NbWJvljn8GwCGv09/e3pqSk/F59ff3rbIZCRazX1dW9m5OT80c44DvefQ8e+EQQAvH/JIb6Rmxs7DdqamquIIU0wzIogBTWKioqbsFsfwervTU2Njbi7LKwOFKgLfusaGVjzc3N309LS/v7EydOvIGTDNpzUNjxMvd4Kzs7+4XW1tZXUS+Dzq4N2NOK1Uj9GRz5JKHGAzBd+sLCQiafRGf3vhEdHf0A6mSmpKSkhc9Xm5qa/gZW7XF27wpI5Tx5/AByKc951sTC4sAAN6wXFRW10a6vEEI0o8B3bZTY0zxtdwgbW4iLiyuZm5vLZDugk5AIYeYqKyvvoND/Cqf/4sDAgOY/bKlY9rykvSZPUYguYqVBbpA4OjpaTsFVgH3F/lqYJjMzc6yqqupKbm7un7S3t3+9r6+v29ntEyxBWBwm+EMQwvT0tCYF9uMkh3CYRRMTE0XOLp8V/2ZIyMjGNKVbIxZZWVm/Czm8go11bUcOwp4JQn0BMzMzU5DEMFJoCIOehpHi2E5dWlpKcA7bC9ZVkQ0NDe9xrRepzH8g49/fKzkIliAsDhMcgmjHMK/gpZt8JQiBdjytAUSN4pWXl48TbiSQlkG7jmX3Xp3xuvoNsbHLkMPXIYmvElb8ENLqc/ZvC79fiqMhx/Hx8R4K3QzTLeXk5CylpqYuJiYmrlIh0VRODIXZkvEo7CrHznLOYGFhYScVcINY6EVI4at37tx53d/5Dg5BPG4JwuIwwEMQUhB7JQiBtjyj8wg1Ogg5VvD6izjjpYSEhBXZF746js+WZIGNraHIp1D53cpDWVnZO9jcNzs7O798+/ZtjQz6NN9iX2/NwghXUBMThBk3+aoOj5sw3nR6evo0hdAUigTYapUCLvNZ0gfVMUV40l1aWnoVcniV477K+X/V1dX1em9vb6cUinP5PQOCOEfBrYKwOBTYL0EIkv+EGCOaAs3XtzQkidFPoQi0ToshCce+PB9jZxzTUVlZ+Qbh+rc47otDQ0Nf6e7ufof//TuFFJuxr34Db6AaYjD+dFRBMUyVC9PlktFsKinZOWSVfOmziPFOzc/Pj0AuQ2NjY4MokYA8X3Hp0qXPUwH/HrI5sWm+h4VFyAExrJ4/f/57OMk/ef/997+5uLi4r8WXsKUonHCuY2P5qPU8zC6DZIX2cvayfd1DC7eOTk9P9+AsB/iMaoRE19grAkYQm0HlRKMOEiCJeBWMDK+QeS1nZbAfpbAdLEFYHCZ4CAIb+NOrV6++uF+C2AyuG6e+Cf3HxBTOr0u2y870X3Z270j/4Xev6G4QAWjappgLTCjmmQPKeDDIwcIi0qCJTbIrQhBE+PgonzGPnQWCHISgEYSFhcXRhyUICwuLbWEJwsIi+AhaX1+wYQnCwiK4MEOK6qg3W0cMliAsLCy2RVgRhAaBIWot/BmKR2UtLHaF2qTz9UgirAhibW1NT8AtQhKWICwOBdQWwaF6e9ZeEFYEsbq6upCQkDATExNj399pcShAW5ynXc76M836MCDcCGIRBaHXBVqCsDgUgCDmFhYWJgM1cSnUCDeCWIIc9Dp1O1PT4lCAtriwtLQU9CUag4WwIojl5eV5CGJKT5A6SRYWBwb1P/BZpF0eijfk+4OwIojZ2Vm9BLVbHZVOkoXFgWF9fT0Kh0WznD2yL5wOK4LQo+PEe3cTEhLsG8AtDhQoB639qFf7jwVqOYODQFgRxPT09NTMzExfYmKi3kjupFpYhB6Qw3x1dfUVwouOVeAkHzmElRXpMXIIYiQzM7MjIyPDfQGphUWogYqdox1e0Qunj/LyBmHnZon3JlAQV7TWpZNkYRFSKLxISUkZX19fvzk8PNzlJB9JhB1BaMHbgYGBl7Oysm7Y+RAWB4Hk5OSp3NzcVq3VOjIyMuQkH0mEHUEsAAiiPT4+/mZZWVlrXFycnXZtEVKo3RHivgJB9DpJRxZh2ZOnzkpwubS09DJEEbRXBFpYeEMd42lpaRN5eXlX+vv7X56YmDiyoxcehCVBqNe4vb39Cl8VagzYEQ2LUCApKWmupqbmKl/f6OnpadH6q/f2HF3s670YhxlaQTgqKko/mHqQS2DznHt7LCwCD83eVcc4ny/hnL5NeDHs7DrSCFuCEObm5jTUOVBeXp7B/yLCjkyzw8IiwCgpKdGLar5JaPFCR0dHk5N85BHWBKHx59nZ2anExMTh0tLSaFRFKZ80ko/sGoEWhwcazkxISFjOzs4erq6ufnlwcPC/KrTQcvTOIUceYU0QgvojZmZmxmJiYvqqqqpmVlZWyiYnJ7PZZUnCYl/QC3FRp7cIY784MjLype7u7ia9C8bZHRYIe4IQ9Cw+JKGJKwMVFRWLML76JVL5LVOP6EI/FgcMQoq+urq61zIzM7/R29v7zdbW1pvh0Cm5GRFBEIKUxPj4+PDU1NSdnJycvvz8/Oj4+Hi9Sj0WqRgPUUQf4RmxFkFGbGysFMNCWlramN6YXVlZ+TJ88KW7d+/+Y19fXxftJyw9TUTK7IyMjExUREFubm5NamrqkxMTE48PDQ1VQSCZ/Oh6EaoQzW+u+tmqjrZtDDrH+TgpBw/Fynw87LfVmK8ns96Z3nMBKLOnzg4FnHKbj49QmfUxdcV5pg4ghxXaymBBQUETBPEOavT1wcHBxv28FPeoICIJwgM8QkppaWktP/7xhISEUhp3HioiZ3l5OZP/KXzi+cTqwz7TWDR9m4ajj5YQ01RuKQ+3HhcWFtIhnCJi0jLI5lDULyQ4Q+NuT0xMNPExeffka6v8mXJ6yqv/HkNx4P3dQOUnikvEYPIpd5F3fRwUVESU4gi/bVdSUpJGs1QOKcYYihStOhB0rMoosKnPMr+xFj6ej4mJWeAzxWeE7QFC0s6xsbEWdUSGW1/DdjgUDfigQQOIgSASUlJS0lAXeXyK4+Li0khOpLHozclqWKauaPyGGPi/rO/si+FjvLIaGZepmZube7yxsfEZDCZR6QeNioqKpqqqqm+QvX42vZ9P2fz732f8gsrlfPXA3Xb2qQ5y8aaP3bx58znI4sDbFb/b+okTJ97Oy8v7PvlpI5tL5FG/pfK6Zf5UFqA3zy9wziwErxfhjkH4g5RtXNP4dYBzeETAEsQWiFfnRGxsHI3MeBon2cA0IeBsutBxSscYTxKjfubWrVu/Njw8nOXsPlCcOXPmB6urq/+xv7+/hf97Xjx1c3k9254yq55QKFV8fvXy5cv/fHFxMc4ceICA3FcvXLjwFcKBP+rt7b3jTJwz8OR/K2gf5LCiegqn4UqLQ4La2tpTzzzzzP+J5xpjUw3xwD/nz5//R0KpKr4HDRBj/aVLl/5/KCj15G+Zj1B+IIiVJ5544s9qampOsG3hJ+xDCgEGztQT4x6aupXT5J8+QQMhWQLlVigW1PvsBZRboaB95H8fsAQReBzGsC0KQwnqGC7EaDoA+RymsWITKjjfLfyAJYjg4dB40hDiMLUnU//BJsZwhyWICIE655yvQUGwr29xMLAEESSoN9z5GhEQQQjOpkWYwBJEZCASwx2LAMASRJAQaQrCIjxhCSJ4OFQEEWz5b8OL8IQliCDgEKoH2W+wDdg8pOZ8twgTWIIIPA5laBFsguDyakuWIMIMliACDxmJ6vUwEUVIDDcEKsUixLAEEWA4nlTTra2xWBx5WIIIAg7jAEYkeneraPYPSxCBx6Hsg7Cw8AeWICwCAq0JwT/rscMMliACDxlJJMp5rUcZMYsgRwosQQQYGEmkhhh2HkQYwhJEgOF0jOnfYTIW2y9i4RcsQQQYIgbrSS3CBZYgAowIDjEswhCWICIDIVE0hyyssggALEFYBASWHMITliACDOxEdXqoXkEXYhyacttwb/+wBBFgyJPSLiOxXj2v6LNGGUawBBF4eDxoRCkIvX8CgrBLzIcZLEFYBASoJi0vb9VDmMESROCx+W3YhwLBjscdgrDvoAgzWIIIMDyGAkncS4gQ6A1WlNm+5i7MYAkiwJCnxlAizpNSbJGDJYgwgyWIIOEwhhnBhIhR/yKt3OEOSxCBhwxECiKiYgyHICzCDJYgIgPWeC38giWIAENvk47EPgjNg9C/e1sW4QJLEAEG5KB/MpaI8toOQdhOyjCDJYggAJI4bP0PNsSw8AuWIAIMzQfg3/K9LYsDhiXGfcISRICxvr5u+iD4RFTjtKMY4QlLEBGCSDVgS1z7gyWIAMPpf1CjPDT9ENZILPyFJYjg4DB1Upqp34KzHRQc0mFO5ceS4z5gCSLAcLz1oZtyTLaCThCU+bCtBxF0Ygx3WIIIMBxPuhwdHX2YCCIkeTlsoQyEtbSysrLkbFr4AUsQAYaGObGTBcl6J+nAQB4eSElJWUhISJgiX0GdxOQQ42Hz1ivLy8uWIPYBSxABxtLS0gLGMsvXQyG3MzIy5uLi4kad+RlBw/z8/CyEJGI8FCoiJiZGIQ/8YAliP7AEEWCIIJC1EzTQA2+YjoIYIdwZDnYfxOTk5ATEOME9D4VySkpKmuPrfLCVU7jDEkSAMTMzMz07O9tHI11wkg4M5GElPT29H8LqhbiCSljqf4Ag5hMTE6UinNSDASHVcklJSRPl7uNjF9LdByxBBBjStNPT04NZWVldycnJi07ygQBDXcdge8hPm4jLSQ4a4KCx3NzcDu55oFPNCanmqP/Gubm5bksQ+4MliCAABTGZmZn5bkFBQZeTFHLIi8fHxy9hLJ2jo6Nd8vDOrqBhamqqJz8//93U1NSgk9FOgKDmY2NjmyYmJnqdJAs/YQkiCMBQxvHaP8CbNjtJIQfEsML9ewjBO4aHh/ud5KBiaGiok/v9CIIYcJIOAusxMTELi4uLjRDjQeYjLGAJIgiYB319fbeSkpKa09LSJg8iJsdIp4jD34asmjGWkIQ6Y2NjI5DRjZycnOaUlBSN5IQcKLdxyv3++Ph4K2WfdJIt/IQliCABY9HIwa3S0tJmpH5Ih/6io6NXicF78aQ/wKu3OskhAYY5kJyc/E5RUVH7ARDjOvdthpi/o3w4aRb7gCWIIEGjBv39/W8Sk7+MihgPpbFADqN5eXlXUTFvkYceJzkkmJycHIccv8/9rxDmhLSTFmJcy8jIaOrt7f0+xBiSsCrcEeP8twgCiDSmkdqLeLWMhYWF4rm5uWRnVzCxfvz48R/Fxsb+XUdHx1V4KqRGugaIaKYhxljkfjqEUbKyshLn7A4aEhISFk6fPv09SOnvW1tbL2s0ydllsQ9YgggiNMSGgU7j0afxbIUYSzHtNt7ZHXBgHMsVFRWNeO+v3L59+x80ecnZFVJAEJosNl5YWLhMnqogxmy2Y53dAQchzWxVVdWN9PT0v2xpafnexMTEuLPLYp+wBBFkoBzmMZCR0tJSQuOk7Onp6bzV1dWAelTNd9DUYgyyq7Ky8g/a2tq+cdASe2ZmZop/U2VlZYnkL2dqaioHcRHw9oZSWq6urn4/Nzf3r9rb218ZGBgIaUgV7rAEEQKIJDCOEWS3+gaiIYwCwo9AhRvr8qANDQ1vEsr8RVdX10t9fX2doZj3sBsot0Yy+ktKSuZQUPHj4+PFkGPAlASkuHL27NlXuPYXCae+Czl0H4ZyhxMsQYQImhsBMfRlZ2dPQRJSEClI8VQMxu/fAGKY1ygJHvSNlJSUf2hqavp6b29vSCZF+QLKtgopDEOOg5DjPKFWIt9TCbuS+e93B3lqauospNNKud9KTEz8u+bm5pfUGWvJIfCwBBFCoBrmIIre+Pj4ZqT3Eh4wg+SY6OhoDXGINKJ2auMcp36G1YSEhFnNM+AaNzGUF0ZHR/+isbHxNYxxzDn0UIGwaoKQozMtLa0FlRNLuZMJO6KdkR0pih3LzfHm+QrIYIZyT9fU1FyGZL82Njb2Z4RTlzX/wjnUIsAI/QweC00FTsSjlvKpp8GfwKM+Mjw8fIKGXogxpS8vL2/ZR5GZmTnBOV3E23cxmJuzs7PXBgcH7wwNDfVqcpZz2KEFZU0tLi6uQkXVJyUlnSLL5yhzHQRXNDk5me6oKU+bNIwRGxu7AhkMFBQUtBBK3CGpkTpSmZspe68drQguLEEcIFADcRh7IUZzEuM5TlIhRpLFJwUJnsAnVpOe8LTLeNEFjGWU750QQzPx9p2RkZEB4vwDf2p0r1BvLUZfUlhYeBKurKZMhSsrKyp3GmUWOa5S7hXSVfZFqqkHHmidmJhohkg7NNcCUrXrPIQAliAOATB8A1RBkj7Jyclp2FAGpBCPwawsLi7OzM3NTeJxZ/lu1jjQECr7jux6ixBANOWLUbkhAKKu+MT09PQc/qdQvCXKOcf/ZYq4qhBFHb06T+U2F7AIAR544P8PSuTsR37H5ssAAAAASUVORK5CYII=;" vertex="1" parent="1">
          <mxGeometry x="240" y="80" width="120" height="229.99" as="geometry" />
        </mxCell>
      </root>
    </mxGraphModel>
  </diagram>
</mxfile>
